<?xml version="1.0" encoding="UTF-8"?>
<svg width="33px" height="23px" viewBox="0 0 33 23" version="1.1" xmlns="http://www.w3.org/2000/svg" xmlns:xlink="http://www.w3.org/1999/xlink">
    <!-- Generator: Sketch 55.2 (78181) - https://sketchapp.com -->
    <title>package</title>
    <desc>Created with Sketch.</desc>
    <g id="Web-transporteurs" stroke="none" stroke-width="1" fill="none" fill-rule="evenodd">
        <g id="MISSION-EN-COURS-PLAN---transporteur---ajouter-une-course-3" transform="translate(-305.000000, -527.000000)">
            <g id="bloc-confier-mission-a-transporteur" transform="translate(-9.000000, 120.000000)">
                <g id="Group-8" transform="translate(0.000000, 96.000000)">
                    <g transform="translate(64.000000, 299.000000)" id="package">
                        <g transform="translate(250.000000, 12.000000)">
                            <path d="M32.990389,5.36773455 C32.990389,5.2812357 32.971167,5.19473684 32.9327231,5.11304348 C32.8558352,4.94965675 32.706865,4.83913043 32.5434783,4.80549199 L22.7546911,0.0576659039 C22.5961098,-0.019221968 22.4086957,-0.019221968 22.2501144,0.0576659039 L12.3652174,4.84874142 C12.1729977,4.94004577 12.0480549,5.13226545 12.0384439,5.34851259 L12.0384439,5.35331808 C12.0384439,5.35812357 12.0384439,5.36292906 12.0384439,5.37254005 L12.0384439,17.395881 C12.0384439,17.6169336 12.1633867,17.8187643 12.3652174,17.9148741 L22.2501144,22.7059497 C22.2549199,22.7059497 22.2549199,22.7059497 22.2597254,22.7107551 C22.2741419,22.7155606 22.2885584,22.7203661 22.3029748,22.7299771 C22.3077803,22.7299771 22.3125858,22.7347826 22.3221968,22.7347826 C22.3366133,22.7395881 22.3510297,22.7443936 22.3654462,22.7491991 C22.3702517,22.7491991 22.3750572,22.7540046 22.3798627,22.7540046 C22.3942792,22.7588101 22.4135011,22.7588101 22.4279176,22.7636156 C22.4327231,22.7636156 22.4375286,22.7636156 22.4423341,22.7636156 C22.4615561,22.7636156 22.4855835,22.7684211 22.5048055,22.7684211 C22.5240275,22.7684211 22.5480549,22.7684211 22.5672769,22.7636156 C22.5720824,22.7636156 22.5768879,22.7636156 22.5816934,22.7636156 C22.5961098,22.7636156 22.6153318,22.7588101 22.6297483,22.7540046 C22.6345538,22.7540046 22.6393593,22.7491991 22.6441648,22.7491991 C22.6585812,22.7443936 22.6729977,22.7395881 22.6874142,22.7347826 C22.6922197,22.7347826 22.6970252,22.7299771 22.7066362,22.7299771 C22.7210526,22.7251716 22.7354691,22.7203661 22.7498856,22.7107551 C22.7546911,22.7107551 22.7546911,22.7107551 22.7594966,22.7059497 L32.6732265,17.9004577 C32.8702517,17.8043478 33,17.6025172 33,17.3814645 L33,5.38215103 C32.990389,5.37734554 32.990389,5.37254005 32.990389,5.36773455 Z M22.5,1.21578947 L31.0729977,5.37254005 L27.9157895,6.90549199 L19.3427918,2.74874142 L22.5,1.21578947 Z M22.5,9.52929062 L13.9270023,5.37254005 L18.0212815,3.38787185 L26.5942792,7.54462243 L22.5,9.52929062 Z M13.191762,6.3 L21.923341,10.5336384 L21.923341,21.2643021 L13.191762,17.0306636 L13.191762,6.3 Z M23.076659,21.2643021 L23.076659,10.5336384 L27.1757437,8.54416476 L27.1757437,11.3505721 C27.1757437,11.6677346 27.4352403,11.9272311 27.7524027,11.9272311 C28.0695652,11.9272311 28.3290618,11.6677346 28.3290618,11.3505721 L28.3290618,7.9819222 L31.8370709,6.28077803 L31.8370709,17.0114416 L23.076659,21.2643021 Z" id="Shape" fill="#27AC60" fill-rule="nonzero"></path>
                            <text id="+" font-family="Roboto-Black, Roboto" font-size="16" font-weight="700" fill="#38B36C">
                                <tspan x="0" y="16">+</tspan>
                            </text>
                        </g>
                    </g>
                </g>
            </g>
        </g>
    </g>
</svg>