<?xml version="1.0" encoding="UTF-8"?>
<svg width="11px" height="7px" viewBox="0 0 11 7" version="1.1" xmlns="http://www.w3.org/2000/svg" xmlns:xlink="http://www.w3.org/1999/xlink">
    <!-- Generator: Sketch 55.2 (78181) - https://sketchapp.com -->
    <title>Shape</title>
    <desc>Created with Sketch.</desc>
    <g id="Web-transporteurs" stroke="none" stroke-width="1" fill="none" fill-rule="evenodd">
        <g id="Transporteur---TRANSPORTEUR---fiche" transform="translate(-485.000000, -285.000000)" fill="#34B59D" fill-rule="nonzero">
            <g id="Group-8" transform="translate(300.000000, 181.000000)">
                <g id="Group" transform="translate(185.000000, 100.000000)">
                    <path d="M8.77679864,4.24358479 L4.39325205,8.62713138 C4.39325205,8.78947459 4.23090884,8.78947459 4.06856563,8.78947459 C3.90622242,8.78947459 3.90622242,8.78947459 3.74387921,8.62713138 L1.95801059,6.84126276 C1.63332417,6.51657634 1.14620124,6.51657634 0.821514816,6.84126276 C0.496828395,7.16594919 0.496828395,7.65307212 0.821514816,7.97775854 L2.60738343,9.76362716 C2.93206986,10.2506568 3.41919279,10.413 4.06856563,10.413 C4.71793847,10.413 5.20506141,10.0883136 5.52974783,9.76362716 L9.91329442,5.38008057 C10.2379808,5.05539415 10.2379808,4.56827121 9.91329442,4.24358479 C9.5884214,3.91880507 9.10148506,3.91880507 8.77679864,4.24358479 L8.77679864,4.24358479 Z" id="Shape"></path>
                </g>
            </g>
        </g>
    </g>
</svg>