<?xml version="1.0" encoding="UTF-8"?>
<svg width="23px" height="22px" viewBox="0 0 23 22" version="1.1" xmlns="http://www.w3.org/2000/svg" xmlns:xlink="http://www.w3.org/1999/xlink">
    <!-- Generator: Sketch 55.2 (78181) - https://sketchapp.com -->
    <title>closed</title>
    <desc>Created with Sketch.</desc>
    <g id="-" stroke="none" stroke-width="1" fill="none" fill-rule="evenodd">
        <g id="MISSION-EN-COURS-PLAN---transporteur---ajouter-une-course-2" transform="translate(-1016.000000, -145.000000)" fill="#FFFFFF" fill-rule="nonzero">
            <g id="rol-pop-up">
                <g id="closed" transform="translate(1016.592157, 145.000000)">
                    <path d="M18.8072331,3.22222222 C16.7252687,1.14351852 13.9616812,0 11.0172549,0 C8.07282861,0 5.3092411,1.14351852 3.22727669,3.22222222 C1.14531227,5.30092593 0,8.06018519 0,11 C0,13.9398148 1.14531227,16.6990741 3.22727669,18.7777778 C5.3092411,20.8564815 8.07282861,22 11.0172549,22 C13.9616812,22 16.7252687,20.8564815 18.8072331,18.7777778 C20.8891975,16.6990741 22.0345098,13.9398148 22.0345098,11 C22.0345098,8.06018519 20.8891975,5.30092593 18.8072331,3.22222222 Z M17.9215868,17.8935185 C16.0761038,19.7361111 13.6231881,20.75 11.0172549,20.75 C8.41132171,20.75 5.95840595,19.7361111 4.11292302,17.8935185 C0.306034858,14.0925926 0.306034858,7.90740741 4.11292302,4.10648148 C5.95840595,2.26388889 8.41132171,1.25 11.0172549,1.25 C13.6231881,1.25 16.0761038,2.26388889 17.9215868,4.10648148 C21.7284749,7.90740741 21.7284749,14.0925926 17.9215868,17.8935185 Z" id="Shape"></path>
                    <path d="M15.8419264,6.18286371 C15.5976976,5.93904543 15.2060098,5.93904543 14.961781,6.18286371 L11.0172549,10.1207591 L7.07272881,6.18286371 C6.82849998,5.93904543 6.43681223,5.93904543 6.19258339,6.18286371 C5.94835456,6.426682 5.94835456,6.81771133 6.19258339,7.06152961 L10.1371095,10.999425 L6.19258339,14.9373203 C5.94835456,15.1811386 5.94835456,15.5721679 6.19258339,15.8159862 C6.31239376,15.9355952 6.47367696,16 6.63035206,16 C6.78702716,16 6.94831035,15.9401955 7.06812072,15.8159862 L11.0126468,11.8780909 L14.9571729,15.8159862 C15.0769833,15.9355952 15.2382665,16 15.3949416,16 C15.5562248,16 15.7128999,15.9401955 15.8327102,15.8159862 C16.0769391,15.5721679 16.0769391,15.1811386 15.8327102,14.9373203 L11.8974003,10.999425 L15.8419264,7.06152961 C16.0861552,6.81771133 16.0861552,6.426682 15.8419264,6.18286371 Z" id="Shape"></path>
                </g>
            </g>
        </g>
    </g>
</svg>