<?xml version="1.0" encoding="UTF-8"?>
<svg width="23px" height="20px" viewBox="0 0 23 20" version="1.1" xmlns="http://www.w3.org/2000/svg" xmlns:xlink="http://www.w3.org/1999/xlink">
    <!-- Generator: Sketch 55.2 (78181) - https://sketchapp.com -->
    <title>Shape</title>
    <desc>Created with Sketch.</desc>
    <g id="Web-transporteurs" stroke="none" stroke-width="1" fill="none" fill-rule="evenodd">
        <g id="Transporteur---TRANSPORTEUR---fiche" transform="translate(-892.000000, -231.000000)" fill="#000000" fill-rule="nonzero">
            <g id="Group-8" transform="translate(300.000000, 181.000000)">
                <path d="M608.429755,50 C606.671176,50 605.018438,50.6728074 603.772778,51.8982779 L603.495965,52.1706047 L603.219152,51.8982779 C601.973492,50.6728074 600.320754,50 598.562175,50 C596.811738,50 595.159,50.6728074 593.921482,51.8902683 C592.675822,53.1157389 591.99193,54.74169 592,56.4637565 C592,58.1938326 592.692105,59.8117741 593.929623,61.0372447 L602.714375,69.6796155 C602.926055,69.8878654 603.21101,70 603.487824,70 C603.764637,70 604.049592,69.8958751 604.261272,69.6876252 L613.070449,61.0532639 C614.316108,59.8277934 615,58.2018422 615,56.4797757 C615,54.7496996 614.316108,53.1237485 613.07859,51.8982779 C611.83293,50.6728074 610.180192,50 608.429755,50 Z M611.686687,59.2555205 L603.491634,67 L595.313203,59.2397476 C594.465439,58.4353312 594,57.3706625 594,56.2350158 C594,55.0993691 594.465439,54.0347003 595.304892,53.2381703 C596.144345,52.4416404 597.266385,52 598.463229,52 C599.660072,52 600.782113,52.4416404 601.629877,53.2460568 L602.710361,54.2712934 C603.150866,54.6892744 603.857336,54.6892744 604.297841,54.2712934 L605.370013,53.2539432 C606.217777,52.4495268 607.339818,52.0078864 608.536662,52.0078864 C609.725194,52.0078864 610.847235,52.4495268 611.694999,53.2539432 C612.542763,54.0583596 613.008202,55.1230284 613,56.2507886 C613,57.3864353 612.534451,58.4511041 611.686687,59.2555205 Z" id="Shape"></path>
            </g>
        </g>
    </g>
</svg>