<svg width="23" height="20" viewBox="0 0 23 20" fill="none" xmlns="http://www.w3.org/2000/svg">
<path fill-rule="evenodd" clip-rule="evenodd" d="M11.7728 1.89828C13.0184 0.672807 14.6712 0 16.4298 0C18.1802 0 19.8329 0.672807 21.0786 1.89828C22.3161 3.12375 23 4.7497 23 6.47978C23 8.20184 22.3161 9.82779 21.0704 11.0533L12.2613 19.6876C12.0496 19.8959 11.7646 20 11.4878 20C11.211 20 10.9261 19.8879 10.7144 19.6796L1.92962 11.0372C0.692105 9.81177 7.18639e-05 8.19383 7.18639e-05 6.46376C-0.0080697 4.74169 0.675822 3.11574 1.92148 1.89027C3.159 0.672807 4.81174 0 6.56218 0C8.32075 0 9.97349 0.672807 11.2192 1.89828L11.496 2.1706L11.7728 1.89828ZM11.4916 17L19.6867 9.25552C20.5345 8.4511 20.9999 7.38644 20.9999 6.25079C21.0082 5.12303 20.5428 4.05836 19.695 3.25394C18.8472 2.44953 17.7252 2.00789 16.5367 2.00789C15.3398 2.00789 14.2178 2.44953 13.37 3.25394L12.2978 4.27129C11.8573 4.68927 11.1509 4.68927 10.7104 4.27129L9.62988 3.24606C8.78211 2.44164 7.66007 2 6.46323 2C5.26639 2 4.14434 2.44164 3.30489 3.23817C2.46544 4.0347 2 5.09937 2 6.23502C2 7.37066 2.46544 8.43533 3.3132 9.23975L11.4916 17Z" fill="#34B59D"/>
</svg>
