<?xml version="1.0" encoding="UTF-8"?>
<svg width="50px" height="29px" viewBox="0 0 50 29" version="1.1" xmlns="http://www.w3.org/2000/svg" xmlns:xlink="http://www.w3.org/1999/xlink">
    <!-- Generator: Sketch 55.2 (78181) - https://sketchapp.com -->
    <title>Shape</title>
    <desc>Created with Sketch.</desc>
    <g id="Website-affreteurs" stroke="none" stroke-width="1" fill="none" fill-rule="evenodd">
        <g id="inscription" transform="translate(-712.000000, -571.000000)" fill="#34B59D" fill-rule="nonzero">
            <g id="Group" transform="translate(420.000000, 112.000000)">
                <g transform="translate(219.000000, 429.000000)" id="delivery-truck">
                    <g transform="translate(73.637500, 30.000000)">
                        <path d="M48.9288513,22.1724344 C48.7378214,21.2888628 47.0507696,13.5069574 46.6340221,12.3708088 C45.6320293,9.63919053 43.2247365,6.52951383 40.1946447,4.05244601 C37.0441834,1.47707401 33.7800727,0 31.2390688,0 L6.52160021,0 C5.24062277,0 4.19840799,0.945908581 4.19840799,2.10851687 L4.19840799,5.42161863 L2.48694624,5.42161863 C1.85930485,5.42161863 1.35045183,5.88345091 1.35045183,6.45309489 C1.35045183,7.02273887 1.85930485,7.48457116 2.48694624,7.48457116 L4.19830916,7.48457116 L4.19830916,9.94504567 L1.13649441,9.94504567 C0.508853017,9.94504567 0,10.406878 0,10.9765219 C0,11.5461659 0.508853017,12.0079982 1.13649441,12.0079982 L4.19830916,12.0079982 L4.19830916,22.3709263 C4.19830916,23.5335346 5.24052395,24.4793535 6.52150138,24.4793535 L9.355029,24.4793535 C9.77869435,27.0345444 12.2136583,29 15.1452209,29 C18.0767836,29 20.5117475,27.0345444 20.9353141,24.4793535 L31.3598337,24.4793535 C31.7834002,27.0345444 34.218463,29 37.1500256,29 C40.0815883,29 42.5165522,27.0345444 42.9401188,24.4793535 L46.626709,24.4793535 C47.9077852,24.4793535 48.95,23.5335346 48.95,22.3709263 C48.95,22.3043736 48.9428846,22.2379107 48.9288513,22.1724344 Z M44.3472965,12.6898489 L32.6362652,12.6898489 L32.6362652,2.24736254 C36.7850627,3.25865775 42.5355267,8.26840342 44.3472965,12.6898489 Z M15.1453198,26.9371372 C13.169796,26.9371372 11.5624964,25.4784503 11.5624964,23.6853858 C11.5624964,21.892411 13.169796,20.4337242 15.1453198,20.4337242 C17.1208435,20.4337242 18.7280443,21.892411 18.7280443,23.6853858 C18.7279454,25.4784503 17.1208435,26.9371372 15.1453198,26.9371372 Z M37.1501245,26.9371372 C35.1746007,26.9370475 33.5673011,25.4783606 33.5673011,23.6853858 C33.5673011,21.892411 35.1746007,20.4337242 37.1501245,20.4337242 C39.1256482,20.4337242 40.732849,21.892411 40.732849,23.6853858 C40.732849,25.4784503 39.1256482,26.9371372 37.1501245,26.9371372 Z M46.570576,22.4164906 C45.6228385,22.4164906 42.8358577,22.4164906 42.8358577,22.4164906 C42.2072281,20.0969247 39.8971797,18.3708613 37.1501245,18.3708613 C34.4030692,18.3708613 32.092922,20.0969247 31.4642924,22.4164906 L20.831053,22.4164906 C20.2024234,20.0969247 17.892375,18.3708613 15.1453198,18.3708613 C12.3982645,18.3708613 10.0881173,20.0969247 9.45948766,22.4164906 L6.52160021,22.4164906 C6.49392904,22.4164906 6.47129798,22.3960405 6.47129798,22.371016 L6.47129798,12.0080879 L20.399284,12.0080879 C21.0269254,12.0080879 21.5357784,11.5462556 21.5357784,10.9766116 C21.5357784,10.4069676 21.0269254,9.94513536 20.399284,9.94513536 L6.47129798,9.94513536 L6.47129798,7.48466085 L12.8821147,7.48466085 C13.5097561,7.48466085 14.0186091,7.02282856 14.0186091,6.45318459 C14.0186091,5.88354061 13.5097561,5.42170832 12.8821147,5.42170832 L6.47129798,5.42170832 L6.47129798,2.10860656 C6.47129798,2.08349236 6.49383021,2.06304222 6.52150138,2.06304222 L30.3632763,2.06304222 L30.3632763,13.7212354 C30.3632763,14.2908794 30.8720305,14.7527117 31.4997708,14.7527117 L44.9356053,14.7528014 C45.420246,16.7584397 46.084947,19.9731476 46.6508224,22.3528979 C46.6622862,22.4007943 46.6292784,22.4164906 46.570576,22.4164906 Z" id="Shape"></path>
                    </g>
                </g>
            </g>
        </g>
    </g>
</svg>