<?xml version="1.0" encoding="UTF-8"?>
<svg width="21px" height="21px" viewBox="0 0 21 21" version="1.1" xmlns="http://www.w3.org/2000/svg" xmlns:xlink="http://www.w3.org/1999/xlink">
    <!-- Generator: Sketch 55.2 (78181) - https://sketchapp.com -->
    <title>mail</title>
    <desc>Created with Sketch.</desc>
    <g id="Web-transporteurs" stroke="none" stroke-width="1" fill="none" fill-rule="evenodd">
        <g id="TABLEAU-DE-BORD.-TRANSPORTEUR---Profil" transform="translate(-533.000000, -763.000000)" fill="#5D7183" fill-rule="nonzero">
            <g id="Group-6" transform="translate(212.000000, 223.000000)">
                <g id="COORDONNEES" transform="translate(33.000000, 33.000000)">
                    <g id="Group-5" transform="translate(7.000000, 480.000000)">
                        <g id="Login" transform="translate(0.000000, 26.545585)">
                            <g id="mail" transform="translate(281.000000, 0.454415)">
                                <path d="M13.3128706,16.1387026 L10.9418494,18.5211769 C9.82278657,19.6510983 8.29762151,20.2859304 6.70743467,20.2836551 L6.70001977,20.2836551 C4.27766533,20.2830786 2.0942954,18.8223372 1.16972819,16.583028 C0.245161117,14.3437189 0.761914921,11.7678859 2.4787236,10.0590295 L4.86115219,7.68796274 C5.26098052,7.28983791 5.9083485,7.29097874 6.30646568,7.69138495 C6.70458272,8.09122081 6.70344206,8.73860136 6.3030434,9.13672604 L3.92175547,11.5072226 C2.79128546,12.6325809 2.45134592,14.3283186 3.05992899,15.8027491 C3.66851207,17.2771796 5.10584033,18.2388391 6.70116058,18.2388391 L6.70572353,18.2388391 C7.7523495,18.2405503 8.75676814,17.8224623 9.49311358,17.0786877 L11.864135,14.6967837 C12.1208006,14.4338387 12.4989549,14.3288889 12.8542944,14.4218608 C13.2096339,14.5148327 13.4879737,14.7920369 13.5826548,15.1468129 C13.6773358,15.5021591 13.5746697,15.880891 13.3128706,16.1387026 Z M13.3767518,6.17759833 C13.7760097,5.77890316 14.4233778,5.77890316 14.8226355,6.17759833 C15.221323,6.5768637 15.221323,7.22424426 14.8226355,7.62350977 L7.62401651,14.822267 C7.22475866,15.2209622 6.57739054,15.2209622 6.17813284,14.822267 C5.77944532,14.4230016 5.77944532,13.7756211 6.17813284,13.3763556 L13.3767518,6.17759833 Z M18.5214744,10.9408358 L16.1396162,13.3119026 C15.7392175,13.7100274 15.0924199,13.7088866 14.6937323,13.3084804 C14.2956153,12.9086445 14.2973263,12.261264 14.6971546,11.8631393 L17.0790129,9.49264273 C18.2089126,8.36728439 18.5494224,6.67154674 17.9408394,5.19711626 C17.3322563,3.72268578 15.894928,2.7610262 14.2996078,2.7610262 L14.2950448,2.7610262 C13.2484188,2.75931502 12.2440002,3.17740302 11.5076548,3.92117764 L9.1366334,6.30365212 C8.73737555,6.69664343 8.09571118,6.6955026 7.6987348,6.29965943 C7.3011881,5.90438661 7.29662515,5.26270977 7.68789777,4.86116274 L10.058919,2.47925874 C11.1779818,1.34876702 12.7031468,0.713934889 14.2933337,0.716777182 L14.3007486,0.716777182 C16.723103,0.716777182 18.9070434,2.17752812 19.8316105,4.41740771 C20.7556072,6.65671695 20.2388534,9.23254977 18.5220447,10.9414063 L18.5214744,10.9408358 Z" id="Shape"></path>
                            </g>
                        </g>
                    </g>
                </g>
            </g>
        </g>
    </g>
</svg>