<?xml version="1.0" encoding="UTF-8"?>
<svg width="34px" height="34px" viewBox="0 0 34 34" version="1.1" xmlns="http://www.w3.org/2000/svg" xmlns:xlink="http://www.w3.org/1999/xlink">
    <!-- Generator: Sketch 55.2 (78181) - https://sketchapp.com -->
    <title>tag</title>
    <desc>Created with Sketch.</desc>
    <g id="Symbols" stroke="none" stroke-width="1" fill="none" fill-rule="evenodd">
        <g id="header-transporteur" transform="translate(-989.000000, -26.000000)" fill="#BE70CE" fill-rule="nonzero">
            <g id="header-affreteur-">
                <g id="Group-8" transform="translate(939.000000, 12.000000)">
                    <g id="tag" transform="translate(50.000000, 14.000000)">
                        <path d="M13.7954407,0.16468816 C13.6429508,0.0132845514 13.4185057,-0.0387517974 13.2150936,0.029615121 L3.77068588,3.17642941 L0.960555341,0.36591372 C0.738047465,0.151125445 0.384636339,0.154170142 0.166002942,0.372833499 C-0.0526304547,0.591496785 -0.0556746635,0.944956338 0.159084183,1.16749471 L3.07465694,4.08346699 L0.0320554145,13.2100311 C-0.035748585,13.4134711 0.0173876244,13.637947 0.169323955,13.7899041 L20.2080402,33.8341342 C20.4294411,34.0552886 20.7881105,34.0552886 21.0095114,33.8341342 L33.8341569,21.0077312 C34.055281,20.7863 34.055281,20.4275815 33.8341569,20.2061503 L13.7954407,0.16468816 Z M20.6087758,32.6317627 L1.21848736,13.23771 L3.97077694,4.9786027 L6.13081918,7.13866409 C5.32851782,8.35266074 5.57565653,9.97685868 6.70258697,10.8971821 C7.82951741,11.8175056 9.47009788,11.7347457 10.4987817,10.7059209 C11.5274654,9.67709616 11.610214,8.03629088 10.6900167,6.90920602 C9.76981933,5.78212115 8.14584386,5.53494858 6.93201361,6.33735995 L4.66486867,4.06990434 L13.2411082,1.21399526 L32.6319502,20.6069408 L20.6087758,32.6317627 Z M8.09409145,9.10358932 C8.31632253,9.3183776 8.67001046,9.3153329 8.88864385,9.09666962 C9.10727718,8.87800633 9.11032146,8.5245467 8.89556261,8.30200834 L7.76586463,7.17215562 C8.51226237,6.81454421 9.4075521,7.04732375 9.88494778,7.72324249 C10.3626201,8.3991613 10.2831925,9.32086875 9.69703377,9.90517031 C9.02425185,10.5473208 7.96540222,10.5473208 7.2926203,9.90517031 C6.78063074,9.39809283 6.64862049,8.6214229 6.96439347,7.9737366 L8.09409145,9.10358932 Z" id="Shape"></path>
                        <polygon id="Shape" points="12 21.5382981 13.5382981 20 22 28.4614363 20.4614363 30"></polygon>
                        <polygon id="Shape" points="16 17.5382572 17.538339 16 26 24.4614772 24.4613955 26"></polygon>
                        <polygon id="Shape" points="18 14.538339 19.5385228 13 28 21.4613954 26.4617428 23"></polygon>
                        <polygon id="Shape" points="21 12.8332134 21.8332614 12 31 21.1664989 30.1664508 22"></polygon>
                        <polygon id="Shape" points="14 18.8335492 14.8335011 18 24 27.1664509 23.1667865 28"></polygon>
                    </g>
                </g>
            </g>
        </g>
    </g>
</svg>