<?xml version="1.0" encoding="UTF-8" standalone="no"?>
<!-- Created with Inkscape (http://www.inkscape.org/) -->

<svg
   xmlns:dc="http://purl.org/dc/elements/1.1/"
   xmlns:cc="http://creativecommons.org/ns#"
   xmlns:rdf="http://www.w3.org/1999/02/22-rdf-syntax-ns#"
   xmlns:svg="http://www.w3.org/2000/svg"
   xmlns="http://www.w3.org/2000/svg"
   xmlns:sodipodi="http://sodipodi.sourceforge.net/DTD/sodipodi-0.dtd"
   xmlns:inkscape="http://www.inkscape.org/namespaces/inkscape"
   width="210mm"
   height="297mm"
   viewBox="0 0 210 297"
   version="1.1"
   id="svg8"
   inkscape:version="0.92.4 (5da689c313, 2019-01-14)"
   sodipodi:docname="headset.svg">
  <defs
     id="defs2" />
  <sodipodi:namedview
     id="base"
     pagecolor="#ffffff"
     bordercolor="#666666"
     borderopacity="1.0"
     inkscape:pageopacity="0.0"
     inkscape:pageshadow="2"
     inkscape:zoom="0.7"
     inkscape:cx="406.54425"
     inkscape:cy="704.14859"
     inkscape:document-units="mm"
     inkscape:current-layer="layer1"
     showgrid="false"
     inkscape:window-width="1920"
     inkscape:window-height="1001"
     inkscape:window-x="-9"
     inkscape:window-y="-9"
     inkscape:window-maximized="1" />
  <metadata
     id="metadata5">
    <rdf:RDF>
      <cc:Work
         rdf:about="">
        <dc:format>image/svg+xml</dc:format>
        <dc:type
           rdf:resource="http://purl.org/dc/dcmitype/StillImage" />
        <dc:title></dc:title>
      </cc:Work>
    </rdf:RDF>
  </metadata>
  <g
     inkscape:label="Calque 1"
     inkscape:groupmode="layer"
     id="layer1">
    <path
       style="fill:#ffffff;fill-opacity:1;stroke-width:1.74058139"
       d="m 118.15429,248.48673 c -5.59729,-4.64724 -6.44277,-12.58985 -1.94835,-18.3036 3.65007,-4.6403 4.19569,-4.75912 21.85319,-4.75912 17.39626,0 18.22196,0.17135 20.9608,4.35142 2.29075,3.49611 4.26598,4.34308 10.04848,4.30892 18.71572,-0.11059 32.37898,-7.96536 35.87398,-20.62316 1.46734,-5.31432 1.15732,-6.49443 -2.62789,-10.00243 l -4.29152,-3.97725 V 160.1522 c 0,-39.12755 0.0215,-39.34896 4.12186,-43.16249 4.01753,-3.73621 4.05992,-4.07438 1.67568,-13.3642 -4.94847,-19.280719 -19.27016,-36.20735 -38.74867,-45.796596 -10.61249,-5.224508 -12.56865,-5.59275 -29.70981,-5.59275 -17.14115,0 -19.0973,0.368232 -29.70978,5.59275 -19.47855,9.589246 -33.800237,26.515877 -38.74869,45.796596 -2.384257,9.28982 -2.341855,9.62799 1.675697,13.3642 4.100206,3.81309 4.121836,4.03924 4.121836,43.07939 0,36.92543 -0.205933,39.45201 -3.48115,42.72735 -5.134526,5.13451 -14.279368,4.56632 -21.010893,-1.30546 -16.463956,-14.3612 -20.32899,-19.21944 -22.504307,-28.28725 -4.485029,-18.69558 1.641168,-39.97768 13.613678,-47.29331 10.587621,-6.46945 15.686294,-12.65066 17.882697,-21.67953 9.047809,-37.192938 39.992036,-61.56793 78.160912,-61.56793 38.16888,0 69.11309,24.374992 78.16091,61.56793 2.19642,9.02887 7.29509,15.21008 17.88271,21.67953 11.97252,7.31563 18.09867,28.59773 13.6137,47.29331 -2.20523,9.19235 -7.22505,15.44082 -22.9492,28.56651 -4.10765,3.42883 -6.75646,7.63708 -8.1969,13.02282 -4.65684,17.41135 -16.54338,25.97602 -38.27018,27.57507 -10.45312,0.76933 -14.30412,1.84322 -18.18218,5.07033 -4.34622,3.61667 -6.70933,4.09425 -20.25898,4.09425 -12.05043,0 -16.12538,-0.65303 -19.00763,-3.04599 z m 33.74328,-10.00838 c 0,-3.14461 -1.33156,-3.5308 -13.7735,-3.99461 -14.21789,-0.53004 -18.60285,1.32906 -14.57666,6.18034 1.35233,1.62944 5.77495,2.15526 15.13051,1.79893 11.89143,-0.45293 13.21965,-0.85328 13.21965,-3.98466 z M 63.127926,160.12833 c 0,-35.36794 -0.110609,-36.52833 -3.481182,-36.52833 -3.349149,0 -3.499094,1.31813 -3.954398,34.76252 -0.260278,19.11939 -0.0668,35.82156 0.429893,37.11599 0.496714,1.29438 2.276186,2.08902 3.954399,1.76584 2.79238,-0.53778 3.051288,-3.68692 3.051288,-37.11602 z m 151.430564,0 c 0,-35.36794 -0.11058,-36.52833 -3.48116,-36.52833 -3.34915,0 -3.49912,1.31813 -3.95436,34.76252 -0.26029,19.11939 -0.0668,35.82156 0.42988,37.11599 0.49667,1.29438 2.27614,2.08902 3.95434,1.76584 2.79242,-0.53778 3.0513,-3.68692 3.0513,-37.11602 z m -167.966099,0.0235 c 0,-14.83846 -0.661873,-26.97897 -1.470808,-26.97897 -4.973712,0 -12.245937,15.46701 -12.377445,26.32501 -0.130807,10.79505 7.411351,27.63299 12.377445,27.63299 0.808935,0 1.470808,-12.14057 1.470808,-26.97903 z m 184.771959,21.64755 c 7.90465,-10.84027 8.35903,-30.90042 0.94755,-41.83765 -7.46488,-11.01615 -8.1802,-9.25061 -8.1802,20.1901 0,28.65228 0.66766,30.65061 7.23265,21.64755 z"
       id="path836"
       inkscape:connector-curvature="0" />
  </g>
</svg>
