<?xml version="1.0" encoding="UTF-8"?>
<svg width="16px" height="16px" viewBox="0 0 16 16" version="1.1" xmlns="http://www.w3.org/2000/svg" xmlns:xlink="http://www.w3.org/1999/xlink">
    <!-- Generator: Sketch 55.2 (78181) - https://sketchapp.com -->
    <title>instagram</title>
    <desc>Created with Sketch.</desc>
    <g id="Symbols" stroke="none" stroke-width="1" fill="none" fill-rule="evenodd" opacity="0.321316964">
        <g id="footer" transform="translate(-1196.000000, -26.000000)" fill="#000000" fill-rule="nonzero">
            <g id="reseaux" transform="translate(1111.000000, 26.000000)">
                <g id="instagram" transform="translate(85.000000, 0.000000)">
                    <path d="M11.6768437,0 L4.32315625,0 C1.939375,0 0,1.939375 0,4.32315625 L0,11.6768437 C0,14.060625 1.939375,16 4.32315625,16 L11.6768437,16 C14.060625,16 16,14.060625 16,11.6768437 L16,4.32315625 C16,1.939375 14.060625,0 11.6768437,0 Z M14.707375,11.6768437 C14.707375,13.347875 13.3479062,14.707375 11.6768437,14.707375 L4.32315625,14.707375 C2.652125,14.707375 1.292625,13.3479062 1.292625,11.6768437 L1.292625,4.32315625 C1.292625,2.652125 2.65209375,1.292625 4.32315625,1.292625 L11.6768437,1.292625 C13.347875,1.292625 14.707375,2.65209375 14.707375,4.32315625 L14.707375,11.6768437 L14.707375,11.6768437 Z" id="Shape"></path>
                    <path d="M10.9614307,6.98632659 C10.8504874,6.23808176 10.5091539,5.55991535 9.9743402,5.02504542 C9.4395265,4.49020598 8.76143137,4.14880613 8.01329568,4.03788167 C7.67266321,3.98737278 7.32730651,3.98737278 6.98670452,4.03788167 C6.06209585,4.17502077 5.24626646,4.66401508 4.68944698,5.41482041 C4.1326275,6.16562574 3.90144485,7.08838076 4.03856954,8.01302567 C4.17569422,8.93770106 4.66463714,9.75361621 5.41536354,10.3105247 C6.02482013,10.7626052 6.74747544,11 7.49259372,11 C7.66531779,11 7.8392915,10.9872585 8.0132652,10.9614401 C8.93787387,10.824301 9.75370326,10.3353067 10.3105227,9.58450136 C10.8673727,8.83372652 11.0985554,7.91100198 10.9614307,6.98632659 Z M7.82834956,9.71420282 C7.23690602,9.80205232 6.64668164,9.65406158 6.16642521,9.29781694 C5.68616879,8.94157229 5.37339406,8.41959631 5.28570619,7.82809059 C5.19798785,7.23658487 5.34584111,6.64629844 5.70204831,6.16599152 C6.05828599,5.68568461 6.58017662,5.372877 7.17165064,5.28514943 C7.28058232,5.2689939 7.39027597,5.26091614 7.49996962,5.26091614 C7.60966327,5.26091614 7.7193874,5.2689939 7.82831908,5.28517992 C8.81068532,5.43085401 9.56860475,6.18882264 9.71429401,7.17132263 C9.89533882,8.39237577 9.0493353,9.53313897 7.82834956,9.71420282 Z" id="Shape"></path>
                    <path d="M11.8535512,3.14644877 C11.7604313,3.053353 11.6315573,3 11.5,3 C11.3684427,3 11.2395687,3.05332882 11.1464488,3.14644877 C11.053353,3.23956873 11,3.36822511 11,3.5 C11,3.63177489 11.053353,3.76043127 11.1464488,3.85355123 C11.2395687,3.946647 11.3684427,4 11.5,4 C11.6315573,4 11.7604313,3.94667118 11.8535512,3.85355123 C11.946647,3.76043127 12,3.63155732 12,3.5 C12,3.36841851 11.946647,3.23954455 11.8535512,3.14644877 Z" id="Shape"></path>
                </g>
            </g>
        </g>
    </g>
</svg>