<?xml version="1.0" encoding="UTF-8"?>
<svg width="425px" height="181px" viewBox="0 0 425 181" version="1.1" xmlns="http://www.w3.org/2000/svg" xmlns:xlink="http://www.w3.org/1999/xlink">
    <title>Logo_Easyshipping</title>
    <g id="Page-1" stroke="none" stroke-width="1" fill="none" fill-rule="evenodd">
        <g id="Logo_Easyshipping">
            <path d="M186.9639,50.8256 L186.9639,53.2536 C186.9639,57.7346 188.6089,59.6026 192.2719,59.6026 C195.5619,59.6026 200.4209,57.8276 204.6069,53.1596 L204.6069,45.0356 L191.2989,45.0356 C187.9359,45.2236 186.9639,47.3706 186.9639,50.8256" id="Fill-1" fill="#3CB395"></path>
            <path d="M195.0557,14.9613 C179.7257,14.9613 172.1527,24.8513 172.1527,37.0593 C172.1527,41.7423 175.5247,48.7373 179.6797,55.5823 C179.6577,55.1863 179.6377,54.7883 179.6377,54.3733 L179.6377,49.6113 C179.6377,42.3283 183.3747,38.2203 189.9547,38.2203 L204.6067,38.2203 L204.6067,34.6713 C204.5327,29.0693 202.9627,27.2953 197.3557,27.2953 C193.7667,27.2953 187.5617,27.8553 181.8797,28.4163 L181.2077,21.7873 C186.3657,20.6663 193.8417,19.6393 198.9257,19.6393 C207.3727,19.6393 211.8587,23.1873 211.8587,34.6713 L211.8587,53.1703 C211.3977,53.9733 210.9207,54.7763 210.4347,55.5793 C214.5877,48.7343 217.9587,41.7413 217.9587,37.0593 C217.9587,24.8513 210.3857,14.9613 195.0557,14.9613" id="Fill-3" fill="#3CB395"></path>
            <path d="M210.3545,55.7094 C209.8805,56.4884 209.3975,57.2644 208.9085,58.0354 C209.3985,57.2644 209.8805,56.4884 210.3545,55.7094" id="Fill-5" fill="#3CB395"></path>
            <path d="M187.0869,66.7128 C186.5009,65.8958 185.9009,65.0458 185.2959,64.1758 C185.9019,65.0478 186.5009,65.8948 187.0869,66.7128" id="Fill-7" fill="#3CB395"></path>
            <path d="M185.2075,64.0482 C183.3565,61.3812 181.4495,58.5002 179.6815,55.5862 C181.4495,58.4992 183.3545,61.3802 185.2075,64.0482" id="Fill-9" fill="#3CB395"></path>
            <path d="M205.3545,59.2289 C202.6635,62.6839 197.4305,67.2589 190.7765,67.2589 C189.4545,67.2589 188.2225,67.0709 187.0895,66.7159 C191.4425,72.7889 195.0555,77.1969 195.0555,77.1969 C195.0555,77.1969 202.4855,68.1329 208.8825,58.0759 C207.8575,59.6869 206.8075,61.2719 205.7635,62.7999 L205.3545,59.2289 Z" id="Fill-11" fill="#3CB395"></path>
            <path d="M145.624,70.7665 C153.46,70.7665 161.85,70.7665 169.053,69.9605 L168.658,62.2195 L146.97,62.2195 C143.803,62.2195 142.616,60.5095 142.616,55.7845 L142.616,38.0865 L165.649,38.0865 L165.649,29.9415 L142.616,29.9415 L142.616,16.0655 C142.616,11.3395 143.803,9.6305 146.97,9.6305 L168.658,9.6305 L169.053,1.7875 C161.85,0.9815 153.46,0.9815 145.624,0.9815 C138.896,0.9815 134.701,5.8095 134.622,13.4505 L134.622,58.2975 C134.701,65.9395 138.817,70.7665 145.624,70.7665" id="Fill-13" fill="#777B78"></path>
            <path d="M145.624,70.7665 C153.46,70.7665 161.85,70.7665 169.053,69.9605 L168.658,62.2195 L146.97,62.2195 C143.803,62.2195 142.616,60.5095 142.616,55.7845 L142.616,38.0865 L165.649,38.0865 L165.649,29.9415 L142.616,29.9415 L142.616,16.0655 C142.616,11.3395 143.803,9.6305 146.97,9.6305 L168.658,9.6305 L169.053,1.7875 C161.85,0.9815 153.46,0.9815 145.624,0.9815 C138.896,0.9815 134.701,5.8095 134.622,13.4505 L134.622,58.2975 C134.701,65.9395 138.817,70.7665 145.624,70.7665 Z" id="Stroke-15" stroke="#777B78" stroke-width="0.634"></path>
            <path d="M253.8096,56.4721 C253.8096,48.1601 251.1146,45.1281 245.0336,43.0741 L234.4086,39.7481 C230.8676,38.4771 229.0966,38.0861 229.0966,33.4891 C229.0966,28.3051 231.1756,28.2071 237.8726,28.2071 C242.5696,28.2071 247.4196,28.5011 252.1166,28.6981 L252.7316,21.8511 C248.1126,20.8721 241.6456,20.2851 236.7186,20.1881 C226.2486,20.0901 221.8606,22.6331 221.8606,33.4891 C221.8606,41.3141 224.1696,45.0311 230.4056,47.0831 L240.8756,50.4091 C244.4166,51.5821 246.5736,52.0721 246.5736,56.4721 C246.5736,61.3641 244.1866,62.3411 235.9486,62.3411 C231.0976,62.3411 226.5566,62.2431 223.0916,61.8521 L222.5526,68.8931 C229.0966,70.1651 234.9476,70.2631 237.4896,70.2631 C248.7286,70.2631 253.8096,68.2091 253.8096,56.4721" id="Fill-17" fill="#777B78"></path>
            <path d="M297.4785,20.0307 L289.2475,20.0307 L279.7485,55.7267 C279.2735,57.5367 278.7185,59.7487 278.1665,61.7587 L277.0575,61.7587 C276.7405,59.6487 276.2655,57.6367 275.7115,55.7267 L266.1345,20.0307 L257.9035,20.0307 L271.5955,66.5857 C271.9125,68.1947 272.9415,69.0997 274.2875,69.0997 L275.8695,69.0997 L275.3155,70.9097 C273.3365,76.8427 270.2495,80.8647 263.9975,83.2787 L264.7895,89.7137 C274.9195,89.5117 279.9075,80.1607 282.5185,71.4117 L297.4785,20.0307 Z" id="Fill-19" fill="#777B78"></path>
            <path d="M160.2407,122.2836 L149.2107,118.3966 C144.5417,116.8636 142.5287,114.9206 142.5287,107.6586 C142.5287,98.2496 145.4267,97.8406 152.9947,97.8406 C158.2277,97.8406 164.2657,98.1456 168.9357,98.3506 L169.4187,90.8846 C163.7827,89.1466 157.9057,88.7376 152.6737,88.7376 C140.1137,88.7376 134.3967,90.9876 134.3967,107.3516 C134.3967,118.0906 137.2957,124.5336 145.4267,127.3976 L156.6987,131.3876 C161.2067,132.9206 163.3007,134.5576 163.3007,142.2276 C163.3007,151.0236 160.8847,152.5576 152.7537,152.6596 C148.5667,152.6596 145.7487,152.5576 135.6857,152.1486 L135.1217,159.7176 C142.8507,161.5586 149.0497,161.7626 152.5927,161.7626 C165.9567,161.7626 171.5117,158.5926 171.5117,142.3306 C171.5117,131.7956 168.8557,125.2496 160.2407,122.2836" id="Fill-21" fill="#000206"></path>
            <path d="M160.2407,122.2836 L149.2107,118.3966 C144.5417,116.8636 142.5287,114.9206 142.5287,107.6586 C142.5287,98.2496 145.4267,97.8406 152.9947,97.8406 C158.2277,97.8406 164.2657,98.1456 168.9357,98.3506 L169.4187,90.8846 C163.7827,89.1466 157.9057,88.7376 152.6737,88.7376 C140.1137,88.7376 134.3967,90.9876 134.3967,107.3516 C134.3967,118.0906 137.2957,124.5336 145.4267,127.3976 L156.6987,131.3876 C161.2067,132.9206 163.3007,134.5576 163.3007,142.2276 C163.3007,151.0236 160.8847,152.5576 152.7537,152.6596 C148.5667,152.6596 145.7487,152.5576 135.6857,152.1486 L135.1217,159.7176 C142.8507,161.5586 149.0497,161.7626 152.5927,161.7626 C165.9567,161.7626 171.5117,158.5926 171.5117,142.3306 C171.5117,131.7956 168.8557,125.2496 160.2407,122.2836 Z" id="Stroke-23" stroke="#171919" stroke-width="0.645"></path>
            <path d="M201.5791,109.2943 C195.7831,109.2943 190.1461,112.6693 184.4301,117.9873 C184.8331,115.3293 184.9941,111.8513 184.9941,108.2723 L184.9141,88.9413 L177.1041,88.9413 L177.1041,160.5353 L184.9141,160.5353 L184.9141,125.0443 C190.9521,120.2373 195.0581,117.6813 199.4061,117.6813 C203.1081,117.6813 204.3971,119.6253 204.3971,125.9663 L204.3971,160.5353 L212.2061,160.5353 L212.2061,123.1023 C212.2061,114.1013 208.4231,109.2943 201.5791,109.2943" id="Fill-25" fill="#171919"></path>
            <polygon id="Fill-27" fill="#171919" points="221.437 160.536 229.166 160.536 229.166 110.625 221.437 110.625"></polygon>
            <path d="M227.1538,89.35 L223.4498,89.35 C221.9208,89.35 221.1958,90.475 221.1958,92.214 L221.1958,97.942 C221.1958,99.885 221.9208,100.908 223.4498,100.908 L227.1538,100.908 C228.6838,100.908 229.4078,99.885 229.4078,97.942 L229.4078,92.214 C229.4078,90.475 228.6838,89.35 227.1538,89.35" id="Fill-29" fill="#171919"></path>
            <path d="M258.2832,153.1723 C254.3382,153.1723 250.9562,151.9433 246.3662,150.5123 L246.3662,125.1483 C251.5192,120.3403 255.2222,117.8863 259.3282,117.8863 C265.0452,117.8863 267.2992,122.3863 267.2992,135.7843 C267.2992,150.0003 264.8032,153.1723 258.2832,153.1723 M261.9862,109.2943 C256.3492,109.2943 249.7482,112.8743 245.6422,118.2953 L245.0792,110.6243 L238.6372,110.6243 L238.6372,180.8893 L246.3662,180.8893 L246.3662,166.8763 C246.4472,163.4003 246.3662,160.2283 246.1252,156.7513 C250.4722,160.2283 255.3852,161.7623 260.3762,161.7623 C270.3592,161.7623 275.3492,155.2163 275.3492,135.8863 C275.3492,118.8063 271.4862,109.2943 261.9862,109.2943" id="Fill-30" fill="#171919"></path>
            <path d="M300.9102,153.1723 C296.9652,153.1723 293.5832,151.9433 288.9942,150.5123 L288.9942,125.1483 C294.1462,120.3403 297.8502,117.8863 301.9562,117.8863 C307.6722,117.8863 309.9272,122.3863 309.9272,135.7843 C309.9272,150.0003 307.4312,153.1723 300.9102,153.1723 M304.6132,109.2943 C298.9772,109.2943 292.3762,112.8743 288.2702,118.2953 L287.7072,110.6243 L281.2652,110.6243 L281.2652,180.8893 L288.9942,180.8893 L288.9942,166.8763 C289.0742,163.4003 288.9942,160.2283 288.7522,156.7513 C293.0992,160.2283 298.0122,161.7623 303.0032,161.7623 C312.9862,161.7623 317.9772,155.2163 317.9772,135.8863 C317.9772,118.8063 314.1132,109.2943 304.6132,109.2943" id="Fill-31" fill="#171919"></path>
            <path d="M331.3955,89.35 L327.6925,89.35 C326.1635,89.35 325.4375,90.475 325.4375,92.214 L325.4375,97.942 C325.4375,99.885 326.1635,100.908 327.6925,100.908 L331.3955,100.908 C332.9255,100.908 333.6505,99.885 333.6505,97.942 L333.6505,92.214 C333.6505,90.475 332.9255,89.35 331.3955,89.35" id="Fill-32" fill="#171919"></path>
            <polygon id="Fill-33" fill="#171919" points="325.68 160.536 333.409 160.536 333.409 110.625 325.68 110.625"></polygon>
            <path d="M367.3555,109.2943 C361.5575,109.2943 355.7615,112.6693 349.9645,118.1933 L349.4815,110.6243 L342.8795,110.6243 L342.8795,160.5353 L350.6885,160.5353 L350.6085,125.1483 C356.6465,120.5453 360.7535,117.6813 365.1805,117.6813 C368.8845,117.6813 370.1715,119.6253 370.1715,125.9663 L370.1715,160.5353 L377.9825,160.5353 L377.9825,123.1023 C377.9825,114.1013 374.2795,109.2943 367.3555,109.2943" id="Fill-34" fill="#171919"></path>
            <path d="M402.6719,133.8422 C395.1849,133.8422 392.6889,131.4882 392.6889,125.3522 C392.6889,119.0112 395.1849,116.8632 402.6719,116.8632 C410.0789,116.8632 412.4949,119.0112 412.4949,125.3522 C412.4949,131.4882 410.0789,133.8422 402.6719,133.8422 L402.6719,133.8422 Z M395.1849,156.3412 L407.8239,158.3872 C413.2989,159.4102 414.5079,160.0252 414.5079,164.8312 C414.5079,171.2752 412.2529,172.6042 403.0749,172.6042 C393.7349,172.6042 391.4809,171.5802 391.4809,164.8312 C391.4809,161.1502 392.7699,158.9002 395.1849,156.3412 L395.1849,156.3412 Z M424.3289,110.6242 L412.1719,110.6242 C409.7569,109.7032 406.6169,109.2942 402.7519,109.2942 C389.7899,109.2942 385.6049,113.8982 385.6049,125.4552 C385.6049,131.8982 387.0539,136.1942 390.7569,138.6492 C387.2139,142.0232 386.3279,150.2062 390.1929,154.1952 C385.8449,157.1602 383.9129,160.0252 383.9129,165.6492 C383.9129,177.2062 388.6629,180.9902 403.1549,180.9902 C417.4859,180.9902 422.1549,177.2062 422.1549,165.3422 C422.1549,156.9552 419.4189,152.5582 411.8499,151.1252 L397.3589,148.2622 C393.6549,147.5452 393.4129,143.3532 394.8619,140.4892 C396.9549,141.0002 399.6129,141.3072 402.6719,141.3072 C415.4739,141.3072 419.7399,136.5002 419.7399,125.3522 C419.7399,121.7722 419.3369,118.9092 418.3709,116.6572 L423.9259,115.9422 L424.3289,110.6242 Z" id="Fill-35" fill="#171919"></path>
            <path d="M208.9082,58.0351 C208.8992,58.0491 208.8912,58.0621 208.8832,58.0761 C208.8912,58.0621 208.8992,58.0491 208.9082,58.0351" id="Fill-36" fill="#FFFFFE"></path>
            <path d="M185.2964,64.1757 C185.2664,64.1337 185.2374,64.0907 185.2074,64.0487 C185.2374,64.0917 185.2664,64.1337 185.2964,64.1757" id="Fill-37" fill="#FFFFFE"></path>
            <path d="M179.6792,55.5824 C179.6792,55.5834 179.6802,55.5854 179.6812,55.5864 C179.6802,55.5854 179.6792,55.5834 179.6792,55.5824" id="Fill-38" fill="#FFFFFE"></path>
            <path d="M187.0894,66.7162 L187.0894,66.7162 C187.0894,66.7152 187.0884,66.7142 187.0874,66.7132 C187.0884,66.7142 187.0894,66.7152 187.0894,66.7162" id="Fill-39" fill="#FFFFFE"></path>
            <path d="M210.4346,55.579 C210.4086,55.622 210.3806,55.666 210.3546,55.709 C210.3806,55.666 210.4076,55.622 210.4346,55.579" id="Fill-40" fill="#FFFFFE"></path>
            <path d="M204.6069,53.1596 C200.4209,57.8276 195.5619,59.6026 192.2719,59.6026 C188.6079,59.6026 186.9639,57.7346 186.9639,53.2536 L186.9639,50.8256 C186.9639,47.3706 187.9359,45.2236 191.2989,45.0356 L204.6069,45.0356 L204.6069,53.1596 Z M211.8589,34.6716 C211.8589,23.1866 207.3729,19.6386 198.9249,19.6386 C193.8409,19.6386 186.3659,20.6656 181.2079,21.7866 L181.8789,28.4156 C187.5619,27.8556 193.7669,27.2956 197.3559,27.2956 C202.9619,27.2956 204.5319,29.0696 204.6069,34.6716 L204.6069,38.2206 L189.9549,38.2206 C183.3749,38.2206 179.6379,42.3276 179.6379,49.6116 L179.6379,54.3736 C179.6379,54.7876 179.6569,55.1866 179.6789,55.5826 C179.6799,55.5836 179.6809,55.5856 179.6819,55.5866 C181.4499,58.4996 183.3569,61.3816 185.2079,64.0486 C185.2369,64.0906 185.2669,64.1336 185.2959,64.1756 C185.9009,65.0466 186.5009,65.8956 187.0869,66.7126 C187.0879,66.7136 187.0889,66.7146 187.0889,66.7166 C188.2219,67.0706 189.4549,67.2596 190.7769,67.2596 C197.4299,67.2596 202.6629,62.6836 205.3549,59.2286 L205.7629,62.8006 C206.8069,61.2726 207.8579,59.6866 208.8829,58.0766 C208.8909,58.0626 208.8989,58.0486 208.9079,58.0346 C209.3979,57.2646 209.8809,56.4886 210.3549,55.7096 C210.3809,55.6656 210.4079,55.6226 210.4349,55.5786 C210.9209,54.7766 211.3979,53.9726 211.8589,53.1706 L211.8589,34.6716 Z" id="Fill-41" fill="#FFFFFE"></path>
            <path d="M28.2637,45.9931 C29.1647,41.4011 29.9857,35.0401 32.7287,31.1471 C33.6697,29.8131 34.7067,28.8101 35.8047,28.1001 C32.9287,29.9091 30.5797,33.1191 29.3437,37.4041 C28.3427,40.8741 27.5157,44.3951 26.8797,47.9471 L28.0607,47.0571 C28.1257,46.7021 28.1937,46.3471 28.2637,45.9931" id="Fill-42" fill="#3CB395"></path>
            <path d="M30.5435,93.7182 C29.2805,94.7652 28.7435,96.5412 29.3555,98.1742 C30.1185,100.2132 32.3615,101.2372 34.3665,100.4602 C36.3705,99.6842 37.3765,97.4022 36.6135,95.3632 C35.8505,93.3232 33.6065,92.3002 31.6025,93.0762 C31.5655,93.0902 31.5355,93.1142 31.5005,93.1282 C25.9365,78.4682 25.1955,62.5882 28.0455,47.1432 C28.0505,47.1142 28.0555,47.0862 28.0605,47.0572 L26.8795,47.9472 C26.8745,47.9762 26.8705,48.0072 26.8655,48.0372 C24.1395,63.3292 24.9505,79.1592 30.5435,93.7182" id="Fill-43" fill="#FFFFFE"></path>
            <path d="M87.4131,127.3773 C88.8691,127.0703 90.2271,126.6213 91.4591,125.9983 C96.5411,123.4243 100.0301,117.9773 101.9241,109.7733 C103.5991,112.9923 105.0011,116.4753 105.3761,119.9253 C106.3481,128.8613 93.1681,130.6423 87.4131,127.3773 M78.8811,83.2903 C77.2031,87.2783 75.3331,91.1763 73.2931,94.9333 C68.2481,104.2273 61.7831,113.4303 53.2911,119.8193 L53.0901,119.7333 C59.9941,114.4443 65.5391,106.9233 69.9131,99.7283 C73.1261,94.4413 76.0241,88.8163 78.4381,82.9793 C72.7331,78.8803 66.5201,75.4943 60.0371,72.8383 C58.3121,75.3543 55.0361,76.3833 52.1541,75.1303 C48.8521,73.6953 47.3201,69.8083 48.7311,66.4493 C50.1421,63.0903 53.9631,61.5313 57.2651,62.9673 C60.5671,64.4023 62.1001,68.2893 60.6881,71.6483 C60.6351,71.7753 60.5561,71.8813 60.4961,72.0033 C66.8741,74.5283 73.1261,77.8173 78.9151,81.8213 C82.0761,73.9273 84.3261,65.6573 85.2141,57.3013 C85.9241,50.6123 86.2951,47.6993 86.4601,43.3323 C84.5811,43.2803 82.8371,42.0863 82.1651,40.1773 C81.2911,37.6943 82.5621,34.9603 85.0031,34.0703 C87.4451,33.1813 90.1331,34.4743 91.0071,36.9583 C91.8811,39.4413 90.6101,42.1763 88.1681,43.0643 C87.8471,43.1823 87.5201,43.2563 87.1951,43.3003 C87.0261,47.5733 86.6561,50.4973 85.9551,57.0993 C85.0421,65.6893 82.6461,74.1113 79.3671,82.1463 C88.7971,88.7573 96.9671,97.2613 102.3771,107.4423 L101.9121,109.7483 C101.0891,108.1683 100.2021,106.6513 99.3381,105.2333 C94.0421,96.5323 86.9871,89.1923 78.8811,83.2903 M45.3941,124.3293 C40.3831,126.5123 35.9921,126.4363 31.6701,123.0023 C26.1061,118.5803 23.8081,111.9343 27.6651,105.7763 C35.2761,110.6563 44.1771,115.7053 53.0691,119.7483 C50.6771,121.5793 48.1211,123.1423 45.3941,124.3293 M102.3971,107.4843 C103.3231,102.4603 103.7261,96.5353 103.5761,89.6783 C103.1351,69.5943 96.5011,29.4513 82.5041,23.1193 C77.4911,20.8483 70.7331,21.8293 61.2331,26.1993 C58.2961,27.5513 54.8781,29.3823 51.1871,31.5563 C46.2751,25.9583 40.4301,25.2453 35.8821,28.0573 C40.5961,25.0713 46.3861,27.4403 50.3311,32.0683 C43.3421,36.2373 35.4621,41.5613 28.0461,47.1433 C25.1951,62.5883 25.9361,78.4683 31.5001,93.1283 C31.5361,93.1133 31.5661,93.0903 31.6021,93.0763 C33.6061,92.3003 35.8501,93.3233 36.6131,95.3623 C37.3761,97.4013 36.3701,99.6843 34.3661,100.4603 C32.3621,101.2363 30.1181,100.2133 29.3551,98.1743 C28.7441,96.5413 29.2811,94.7653 30.5431,93.7183 C24.9511,79.1593 24.1391,63.3293 26.8651,48.0373 C13.6591,58.0933 2.2041,68.8003 0.4281,74.8983 C-1.6529,82.0343 5.0741,88.8143 11.9291,94.5043 C15.6431,97.5873 20.9951,101.4763 27.2371,105.4993 C21.3901,114.1403 29.1661,127.1373 39.5351,126.0003 C43.8951,125.5233 48.0801,123.4583 51.6531,120.9993 C52.1991,120.6233 52.7361,120.2353 53.2661,119.8383 C63.6841,124.5563 74.0761,127.8773 82.3481,127.8763 C83.5741,127.8763 84.7351,127.7743 85.8621,127.6223 C85.8441,127.6433 85.8061,127.6543 85.7931,127.6783 L85.9151,127.7833 C90.6281,130.4593 96.2651,129.9433 101.0221,127.6043 C108.6301,123.8613 107.2491,118.0873 104.3281,111.4603 C103.7311,110.1073 103.0861,108.7833 102.3971,107.4843" id="Fill-44" fill="#3CB395"></path>
            <path d="M99.3384,105.2338 C100.2024,106.6518 101.0894,108.1688 101.9124,109.7488 L102.3774,107.4428 C96.9664,97.2608 88.7974,88.7568 79.3664,82.1458 C82.6464,74.1118 85.0424,65.6898 85.9554,57.0988 C86.6564,50.4968 87.0254,47.5738 87.1944,43.2998 C87.5204,43.2568 87.8464,43.1818 88.1684,43.0648 C90.6094,42.1758 91.8804,39.4418 91.0064,36.9578 C90.1324,34.4748 87.4454,33.1818 85.0034,34.0708 C82.5624,34.9598 81.2914,37.6938 82.1654,40.1778 C82.8374,42.0868 84.5814,43.2798 86.4604,43.3328 C86.2954,47.6998 85.9244,50.6128 85.2134,57.3008 C84.3264,65.6568 82.0754,73.9268 78.9154,81.8218 C73.1264,77.8178 66.8744,74.5278 60.4954,72.0038 C60.5554,71.8808 60.6344,71.7758 60.6884,71.6488 C62.0994,68.2898 60.5674,64.4028 57.2654,62.9668 C53.9634,61.5318 50.1424,63.0898 48.7314,66.4488 C47.3204,69.8078 48.8524,73.6948 52.1544,75.1308 C55.0364,76.3838 58.3124,75.3538 60.0374,72.8378 C66.5204,75.4938 72.7334,78.8808 78.4384,82.9798 C76.0244,88.8168 73.1264,94.4418 69.9134,99.7278 C65.5394,106.9228 59.9934,114.4448 53.0894,119.7338 L53.2914,119.8198 C61.7834,113.4298 68.2484,104.2268 73.2934,94.9328 C75.3334,91.1758 77.2034,87.2778 78.8804,83.2908 C86.9864,89.1928 94.0424,96.5328 99.3384,105.2338" id="Fill-45" fill="#FFFFFE"></path>
        </g>
    </g>
</svg>