<?xml version="1.0" encoding="UTF-8"?>
<svg width="21px" height="27px" viewBox="0 0 21 27" version="1.1" xmlns="http://www.w3.org/2000/svg" xmlns:xlink="http://www.w3.org/1999/xlink">
    <!-- Generator: Sketch 55.2 (78181) - https://sketchapp.com -->
    <title>clipboards</title>
    <desc>Created with Sketch.</desc>
    <g id="Symbols" stroke="none" stroke-width="1" fill="none" fill-rule="evenodd">
        <g id="header-transporteur" transform="translate(-269.000000, -28.000000)" fill="#34B59D" fill-rule="nonzero">
            <g id="header-affreteur-">
                <g id="Group-8" transform="translate(216.000000, 28.000000)">
                    <g id="clipboards" transform="translate(53.000000, 0.000000)">
                        <ellipse id="Oval" cx="10.1133721" cy="2.88418826" rx="1" ry="1"></ellipse>
                        <path d="M20.9491279,6.1565981 C20.9491279,5.02319506 20.0111962,4.10437736 18.8542151,4.10437736 L15.9459524,4.10437736 C15.5580008,3.68219707 15.0596734,3.3591647 14.4871075,3.19780884 C14.0048193,3.06197748 13.633627,2.69834962 13.4949045,2.22588992 C13.1174928,0.940366024 11.908139,0 10.4744985,0 C9.04092348,0 7.83163507,0.940366024 7.4542889,2.22576166 C7.31537,2.69879854 6.94326111,3.06197748 6.46038372,3.19825777 C5.88847252,3.35974189 5.39060341,3.6824536 5.00297907,4.10437736 L2.09491279,4.10437736 C0.93786627,4.10437736 0,5.02319506 0,6.1565981 L0,24.6265207 C0,25.7599237 0.93786627,26.6787414 2.09491279,26.6787414 C6.90443976,26.6787414 12.8154981,26.6787414 18.8542151,26.6787414 C20.0112616,26.6787414 20.9491279,25.7599237 20.9491279,24.6265207 C20.9491279,18.7982779 20.9491279,13.2173277 20.9491279,6.1565981 Z M5.23734744,6.1401162 C5.24454871,5.23803692 5.8667378,4.43382292 6.75039821,4.18434983 C7.58247138,3.94949882 8.22187804,3.32331497 8.46082903,2.50948118 C8.71732492,1.63600472 9.5453392,1.02611037 10.4744985,1.02611037 C11.4037232,1.02611037 12.2317375,1.63600472 12.4881025,2.50948118 C12.7271844,3.32382802 13.3661983,3.94981948 14.1974858,4.18396504 C15.0890022,4.43516969 15.711715,5.24637407 15.711715,6.15653397 L15.711715,7.18264434 L5.23734744,7.18264434 L5.23734744,6.1401162 Z M18.8542151,25.652631 C13.259816,25.652631 7.67458208,25.652631 2.09491279,25.652631 C1.51730605,25.652631 1.0474564,25.1922923 1.0474564,24.6265207 L1.0474564,6.1565981 C1.0474564,5.59082649 1.51730605,5.13048773 2.09491279,5.13048773 L4.36933342,5.13048773 C4.2560772,5.44422097 4.19270609,5.78097757 4.18995651,6.13203558 L4.18995651,8.20881884 L16.7593023,8.20881884 L16.7593023,6.1565981 C16.7593023,5.79649749 16.69436,5.45172441 16.5783542,5.13048773 L18.8542151,5.13048773 C19.4317564,5.13048773 19.901737,5.59082649 19.901737,6.1565981 C19.901737,9.09018352 19.9015406,22.8471811 19.901737,24.6265207 C19.901737,25.1922923 19.4318219,25.652631 18.8542151,25.652631 Z" id="Shape"></path>
                        <polygon id="Shape" points="15.1319 12.2578001 8.66685674 18.6785144 5.81722796 15.8483953 5.05668605 16.603797 8.66685674 20.1893178 15.8924419 13.0132018"></polygon>
                    </g>
                </g>
            </g>
        </g>
    </g>
</svg>