<?xml version="1.0" encoding="UTF-8"?>
<svg width="21px" height="28px" viewBox="0 0 21 28" version="1.1" xmlns="http://www.w3.org/2000/svg" xmlns:xlink="http://www.w3.org/1999/xlink">
    <!-- Generator: Sketch 55.2 (78181) - https://sketchapp.com -->
    <title>clipboards (1)</title>
    <desc>Created with Sketch.</desc>
    <g id="Symbols" stroke="none" stroke-width="1" fill="none" fill-rule="evenodd">
        <g id="header-transporteur" transform="translate(-413.000000, -28.000000)" fill="#DF1B5C" fill-rule="nonzero">
            <g id="header-affreteur-">
                <g id="Group-8" transform="translate(351.000000, 28.000000)">
                    <g id="clipboards-(1)" transform="translate(62.445783, 0.148649)">
                        <ellipse id="Oval" cx="10.1219114" cy="2.9087284" rx="1" ry="1"></ellipse>
                        <path d="M20.2438227,6.20898157 C20.2438227,5.06593496 19.3374688,4.13929949 18.2194405,4.13929949 L15.4090918,4.13929949 C15.0342015,3.71352707 14.5526516,3.38774618 13.9993626,3.22501743 C13.5333118,3.08803034 13.1746166,2.72130855 13.0405645,2.24482893 C12.6758594,0.948431814 11.5072215,0 10.1218481,0 C8.73653802,0 7.56796335,0.948367136 7.20332149,2.24469957 C7.06907964,2.72176129 6.70949874,3.08803034 6.24287863,3.22553485 C5.69022226,3.38839296 5.20911516,3.71385046 4.83454118,4.13929949 L2.02438227,4.13929949 C0.90629064,4.13929949 0,5.06593496 0,6.20898157 L0,24.8360556 C0,25.9791022 0.90629064,26.9057377 2.02438227,26.9057377 C6.67198441,26.9057377 12.384032,26.9057377 18.2194405,26.9057377 C19.3375321,26.9057377 20.2438227,25.9791022 20.2438227,24.8360556 C20.2438227,18.9582232 20.2438227,13.3297874 20.2438227,6.20898157 Z M5.06101895,6.19229476 C5.06797776,5.28254013 5.6692193,4.47148346 6.52319231,4.21988773 C7.32725164,3.98303849 7.94513107,3.35152674 8.17603717,2.53076844 C8.42383422,1.64992468 9.22397131,1.03484104 10.1218481,1.03484104 C11.0197882,1.03484104 11.8199253,1.64992468 12.0676591,2.53083312 C12.2986917,3.35210884 12.9161915,3.98342655 13.7194917,4.21956434 C14.5809929,4.47290637 15.1827405,5.29101289 15.1827405,6.20891689 L15.1827405,7.24375793 L5.06101895,7.24375793 L5.06101895,6.19229476 Z M18.2194405,25.8708967 C12.8133909,25.8708967 7.41619794,25.8708967 2.02438227,25.8708967 C1.46622212,25.8708967 1.01219114,25.4066411 1.01219114,24.8360556 L1.01219114,6.20898157 C1.01219114,5.63839609 1.46622212,5.17414053 2.02438227,5.17414053 L4.22222881,5.17414053 C4.11278564,5.49054317 4.05154808,5.83016507 4.04889107,6.18421006 L4.04889107,8.27866365 L16.1950582,8.27866365 L16.1950582,6.20898157 C16.1950582,5.84581704 16.1323023,5.49811045 16.0202022,5.17414053 L18.2194405,5.17414053 C18.7775374,5.17414053 19.2316949,5.63839609 19.2316949,6.20898157 C19.2316949,9.16752743 19.2315051,23.0415766 19.2316949,24.8360556 C19.2316949,25.4066411 18.7776006,25.8708967 18.2194405,25.8708967 Z" id="Shape"></path>
                        <polygon id="Rectangle-path" points="7.2299367 11.6349136 16.6288544 11.6349136 16.6288544 12.3620957 7.2299367 12.3620957"></polygon>
                        <polygon id="Rectangle-path" points="7.2299367 14.543642 16.6288544 14.543642 16.6288544 15.2708241 7.2299367 15.2708241"></polygon>
                        <polygon id="Rectangle-path" points="7.2299367 17.4523704 16.6288544 17.4523704 16.6288544 18.1795525 7.2299367 18.1795525"></polygon>
                        <polygon id="Rectangle-path" points="7.2299367 20.3610988 16.6288544 20.3610988 16.6288544 21.0882809 7.2299367 21.0882809"></polygon>
                        <ellipse id="Oval" cx="4.77772105" cy="12.0741028" rx="1" ry="1"></ellipse>
                        <ellipse id="Oval" cx="4.77772105" cy="14.9828312" rx="1" ry="1"></ellipse>
                        <ellipse id="Oval" cx="4.77772105" cy="17.8915596" rx="1" ry="1"></ellipse>
                        <ellipse id="Oval" cx="4.77772105" cy="20.800288" rx="1" ry="1"></ellipse>
                    </g>
                </g>
            </g>
        </g>
    </g>
</svg>