<?xml version="1.0" encoding="UTF-8"?>
<svg width="21px" height="24px" viewBox="0 0 21 24" version="1.1" xmlns="http://www.w3.org/2000/svg" xmlns:xlink="http://www.w3.org/1999/xlink">
    <!-- Generator: Sketch 55.2 (78181) - https://sketchapp.com -->
    <title>package</title>
    <desc>Created with Sketch.</desc>
    <g id="Web-transporteurs" stroke="none" stroke-width="1" fill="none" fill-rule="evenodd">
        <g id="MISSION-EN-COURS-PLAN---accepter-la-mission" transform="translate(-67.000000, -805.000000)" fill="#000000" fill-rule="nonzero">
            <g id="bloc-confier-mission-a-transporteur" transform="translate(-9.000000, 120.000000)">
                <g id="Group-8" transform="translate(0.000000, 96.000000)">
                    <g id="Group" transform="translate(57.000000, 494.000000)">
                        <g id="Login" transform="translate(0.000000, 95.000000)">
                            <g id="package" transform="translate(19.000000, 0.454415)">
                                <path d="M20.990389,5.36773455 C20.990389,5.2812357 20.971167,5.19473684 20.9327231,5.11304348 C20.8558352,4.94965675 20.706865,4.83913043 20.5434783,4.80549199 L10.7546911,0.0576659039 C10.5961098,-0.019221968 10.4086957,-0.019221968 10.2501144,0.0576659039 L0.365217391,4.84874142 C0.172997712,4.94004577 0.0480549199,5.13226545 0.0384439359,5.34851259 L0.0384439359,5.35331808 C0.0384439359,5.35812357 0.0384439359,5.36292906 0.0384439359,5.37254005 L0.0384439359,17.395881 C0.0384439359,17.6169336 0.163386728,17.8187643 0.365217391,17.9148741 L10.2501144,22.7059497 C10.2549199,22.7059497 10.2549199,22.7059497 10.2597254,22.7107551 C10.2741419,22.7155606 10.2885584,22.7203661 10.3029748,22.7299771 C10.3077803,22.7299771 10.3125858,22.7347826 10.3221968,22.7347826 C10.3366133,22.7395881 10.3510297,22.7443936 10.3654462,22.7491991 C10.3702517,22.7491991 10.3750572,22.7540046 10.3798627,22.7540046 C10.3942792,22.7588101 10.4135011,22.7588101 10.4279176,22.7636156 C10.4327231,22.7636156 10.4375286,22.7636156 10.4423341,22.7636156 C10.4615561,22.7636156 10.4855835,22.7684211 10.5048055,22.7684211 C10.5240275,22.7684211 10.5480549,22.7684211 10.5672769,22.7636156 C10.5720824,22.7636156 10.5768879,22.7636156 10.5816934,22.7636156 C10.5961098,22.7636156 10.6153318,22.7588101 10.6297483,22.7540046 C10.6345538,22.7540046 10.6393593,22.7491991 10.6441648,22.7491991 C10.6585812,22.7443936 10.6729977,22.7395881 10.6874142,22.7347826 C10.6922197,22.7347826 10.6970252,22.7299771 10.7066362,22.7299771 C10.7210526,22.7251716 10.7354691,22.7203661 10.7498856,22.7107551 C10.7546911,22.7107551 10.7546911,22.7107551 10.7594966,22.7059497 L20.6732265,17.9004577 C20.8702517,17.8043478 21,17.6025172 21,17.3814645 L21,5.38215103 C20.990389,5.37734554 20.990389,5.37254005 20.990389,5.36773455 Z M10.5,1.21578947 L19.0729977,5.37254005 L15.9157895,6.90549199 L7.34279176,2.74874142 L10.5,1.21578947 Z M10.5,9.52929062 L1.92700229,5.37254005 L6.02128146,3.38787185 L14.5942792,7.54462243 L10.5,9.52929062 Z M1.19176201,6.3 L9.92334096,10.5336384 L9.92334096,21.2643021 L1.19176201,17.0306636 L1.19176201,6.3 Z M11.076659,21.2643021 L11.076659,10.5336384 L15.1757437,8.54416476 L15.1757437,11.3505721 C15.1757437,11.6677346 15.4352403,11.9272311 15.7524027,11.9272311 C16.0695652,11.9272311 16.3290618,11.6677346 16.3290618,11.3505721 L16.3290618,7.9819222 L19.8370709,6.28077803 L19.8370709,17.0114416 L11.076659,21.2643021 Z" id="Shape"></path>
                            </g>
                        </g>
                    </g>
                </g>
            </g>
        </g>
    </g>
</svg>