<?xml version="1.0" encoding="UTF-8"?>
<svg width="29px" height="23px" viewBox="0 0 29 23" version="1.1" xmlns="http://www.w3.org/2000/svg" xmlns:xlink="http://www.w3.org/1999/xlink">
    <!-- Generator: Sketch 55.2 (78181) - https://sketchapp.com -->
    <title>Shape</title>
    <desc>Created with Sketch.</desc>
    <g id="Web-transporteurs" stroke="none" stroke-width="1" fill="none" fill-rule="evenodd">
        <g id="TABLEAU-DE-BORD.-TRANSPORTEUR---Profil" transform="translate(-985.000000, -479.000000)" fill="#5B6F81" fill-rule="nonzero">
            <g id="Group-6" transform="translate(212.000000, 223.000000)">
                <g id="Group-4" transform="translate(435.000000, 220.000000)">
                    <path d="M352.5,45 C350.0145,45 348,47.0154 348,49.5 C348,51.9855 350.0145,54 352.5,54 C354.9849,54 357,51.9855 357,49.5 C357,47.0154 354.9849,45 352.5,45 Z M364.1,40.3125 L360.62,40.3125 C360.1415,40.3125 359.62588,39.9445 359.47479,39.494275 L358.57521,36.8179375 C358.42354,36.368 357.9085,36 357.43,36 L347.57,36 C347.0915,36 346.57588,36.368 346.42479,36.818225 L345.52521,39.4945625 C345.37354,39.9445 344.8585,40.3125 344.38,40.3125 L340.9,40.3125 C339.305,40.3125 338,41.60625 338,43.1875 L338,56.125 C338,57.70625 339.305,59 340.9,59 L364.1,59 C365.695,59 367,57.70625 367,56.125 L367,43.1875 C367,41.60625 365.695,40.3125 364.1,40.3125 Z M352.5,56 C348.3579,56 345,52.86596 345,49 C345,45.13432 348.3579,42 352.5,42 C356.6415,42 360,45.13432 360,49 C360,52.86596 356.6415,56 352.5,56 Z M363,45 C362.448,45 362,44.5525714 362,44 C362,43.448 362.448,43 363,43 C363.552571,43 364,43.448 364,44 C364,44.5525714 363.552286,45 363,45 Z" id="Shape"></path>
                </g>
            </g>
        </g>
    </g>
</svg>