<?xml version="1.0" encoding="UTF-8"?>
<svg width="25px" height="26px" viewBox="0 0 25 26" version="1.1" xmlns="http://www.w3.org/2000/svg" xmlns:xlink="http://www.w3.org/1999/xlink">
    <!-- Generator: Sketch 55.2 (78181) - https://sketchapp.com -->
    <title>discount</title>
    <desc>Created with Sketch.</desc>
    <g id="Symbols" stroke="none" stroke-width="1" fill="none" fill-rule="evenodd">
        <g id="header-transporteur" transform="translate(-1125.000000, -32.000000)" fill="#CA3333" fill-rule="nonzero">
            <g id="header-affreteur-">
                <g id="Group-8" transform="translate(1052.000000, 12.000000)">
                    <g id="discount" transform="translate(73.000000, 20.000000)">
                        <path d="M23.7946428,13.3367742 C23.6898159,13.1227337 23.6898159,12.8772599 23.7946428,12.6632702 L24.7663782,10.6795234 C25.3074072,9.57499315 24.8787364,8.25850436 23.7904701,7.68229612 L21.835906,6.64738612 C21.6250308,6.53577022 21.4804613,6.33711625 21.4391921,6.10256034 L21.05693,3.92767515 C20.8440703,2.71675935 19.721608,1.90304994 18.5020028,2.07524718 L16.311171,2.38450145 C16.0746998,2.41781356 15.8408747,2.34194725 15.6693351,2.17635149 L14.07907,0.641150358 C13.1935878,-0.213691395 11.8064122,-0.213742176 10.9209809,0.641150358 L9.33066489,2.17650383 C9.15907442,2.34215037 8.92524932,2.41786435 8.68882899,2.38465379 L6.49799722,2.07539952 C5.27798487,1.90310072 4.15592972,2.71691169 3.94307,3.92782749 L3.56080795,6.10261113 C3.51953871,6.33721781 3.37496915,6.535821 3.16414491,6.64748769 L1.20958081,7.68239768 C0.12131453,8.25855514 -0.307356337,9.5751455 0.233672706,10.6796758 L1.2053572,12.6633718 C1.31018412,12.8774123 1.31018412,13.122886 1.2053572,13.3368758 L0.233621819,15.3205718 C-0.307407224,16.4251021 0.121263643,17.7415908 1.20952993,18.3177991 L3.16409403,19.3527091 C3.37496915,19.464325 3.51953871,19.662979 3.56080795,19.8975349 L3.94307,22.0724201 C4.13684715,23.1747668 5.08405507,23.9478517 6.17267756,23.9477501 C6.27989616,23.9477501 6.38869226,23.9402346 6.49804811,23.9247972 L8.68887988,23.615543 C8.92514755,23.5820785 9.15912531,23.6580972 9.33071578,23.8236929 L10.9209809,25.3588941 C11.3637983,25.7863657 11.9317974,26 12.5,26 C13.06805,26 13.6364052,25.7862642 14.0790191,25.3588941 L15.6693351,23.8236929 C15.8409256,23.6580972 16.0748016,23.582434 16.311171,23.615543 L18.5020028,23.9247972 C19.7221678,24.0970453 20.8440703,23.2832851 21.05693,22.0723693 L21.4392429,19.8975856 C21.4805122,19.662979 21.6250817,19.4643758 21.835906,19.3527091 L23.7904701,18.3177991 C24.8787364,17.7416416 25.3074072,16.4250513 24.7663782,15.320521 L23.7946428,13.3367742 Z M23.0861451,16.9930838 L21.131581,18.0279938 C20.5084206,18.3580174 20.0810219,18.9449403 19.9591479,19.6384011 L19.5768858,21.8132355 C19.5048809,22.222934 19.1253159,22.4981144 18.7124708,22.4399705 L16.521639,22.1307163 C15.8229625,22.0319479 15.1316137,22.2563476 14.6245262,22.7458225 L13.0342102,24.2809728 C12.7346902,24.570118 12.2653607,24.570118 11.9657389,24.2809728 L10.3754738,22.7457717 C9.94690471,22.3320616 9.38664043,22.107865 8.80174692,22.107865 C8.69457921,22.107865 8.58654641,22.1153805 8.47836096,22.1306655 L6.28752919,22.4399197 C5.87504034,22.4981144 5.49516997,22.2228832 5.42311418,21.8131848 L5.04080124,19.6382996 C4.91887634,18.9448388 4.49152853,18.357865 3.86831721,18.027943 L1.91375311,16.993033 C1.54553583,16.7980861 1.40050829,16.3526888 1.58354831,15.9789939 L2.55528369,13.9952471 C2.86508287,13.3627231 2.86508287,12.6372705 2.55528369,12.0047465 L1.58354831,10.0209998 C1.40050829,9.64730483 1.54553583,9.20190759 1.91375311,9.00696061 L3.86831721,7.97205061 C4.49147764,7.64202705 4.91887634,7.0551041 5.04075035,6.36164331 L5.42301241,4.18680889 C5.4950682,3.77711047 5.87458236,3.50187925 6.28742742,3.56007389 L8.47825919,3.86932816 C9.17668127,3.96799499 9.86828452,3.74369679 10.375372,3.25422194 L11.965688,1.7190208 C12.2652081,1.42987568 12.7345375,1.42987568 13.0341593,1.7190208 L14.6244244,3.25422194 C15.1315119,3.74374757 15.8230134,3.96799499 16.5215373,3.86932816 L18.712369,3.56007389 C19.1249088,3.50182847 19.5047791,3.77711047 19.576784,4.18680889 L19.9590461,6.36169409 C20.080971,7.05515488 20.5083188,7.64212862 21.1315301,7.97205061 L23.0860942,9.00696061 C23.4543115,9.20190759 23.599339,9.64730483 23.416299,10.0209998 L22.4445636,12.0046957 C22.1347645,12.637169 22.1347645,13.3627231 22.4445636,13.9951963 L23.416299,15.9788923 C23.5993899,16.3526888 23.4543624,16.7981368 23.0861451,16.9930838 Z" id="Shape"></path>
                        <path d="M17.7880026,7.23123556 C17.5054293,6.92292148 17.047136,6.92292148 16.7645137,7.23123556 L7.21196676,17.6522087 C6.92934441,17.9605228 6.92934441,18.4604236 7.21196676,18.7687377 C7.35327793,18.9228947 7.53850683,19 7.72368671,19 C7.90886659,19 8.09414451,18.9229482 8.23540666,18.7687377 L17.7879536,8.34781805 C18.070674,8.0394505 18.070674,7.53960311 17.7880026,7.23123556 Z" id="Shape"></path>
                        <path d="M10,6 C8.34581355,6 7,7.34581355 7,9 C7,10.6541864 8.34581355,12 10,12 C11.6541864,12 13,10.6541864 13,9 C13,7.34581355 11.6541864,6 10,6 Z M10,10.3636011 C9.24810211,10.3636011 8.6363989,9.75189789 8.6363989,8.99994459 C8.6363989,8.24804669 9.24810211,7.63634349 10,7.63634349 C10.7518979,7.63634349 11.3636565,8.24804669 11.3636565,8.99994459 C11.3636011,9.75189789 10.7518979,10.3636011 10,10.3636011 Z" id="Shape"></path>
                        <path d="M16,15 C14.3458136,15 13,16.3458136 13,18 C13,19.6541864 14.3458136,21 16,21 C17.6541864,21 19,19.6541864 19,18 C19,16.3458136 17.6541864,15 16,15 Z M16,19.3636011 C15.2481021,19.3636011 14.6363435,18.7518979 14.6363435,18 C14.6363435,17.2481021 15.2480467,16.6363989 16,16.6363989 C16.7518979,16.6363989 17.3636011,17.2481021 17.3636011,18 C17.3636011,18.7518979 16.7518979,19.3636011 16,19.3636011 Z" id="Shape"></path>
                    </g>
                </g>
            </g>
        </g>
    </g>
</svg>