<?xml version="1.0" encoding="UTF-8"?>
<svg width="25px" height="34px" viewBox="0 0 25 34" version="1.1" xmlns="http://www.w3.org/2000/svg" xmlns:xlink="http://www.w3.org/1999/xlink">
    <!-- Generator: Sketch 55.2 (78181) - https://sketchapp.com -->
    <title>receipt</title>
    <desc>Created with Sketch.</desc>
    <g id="Web-transporteurs" stroke="none" stroke-width="1" fill="none" fill-rule="evenodd">
        <g id="TABLEAU-DE-BORD.-TRANSPORTEUR---Profil" transform="translate(-990.000000, -590.000000)" fill="#25AE88" fill-rule="nonzero">
            <g id="Group-6" transform="translate(212.000000, 223.000000)">
                <g id="Group-4" transform="translate(435.000000, 333.000000)">
                    <g id="receipt" transform="translate(343.000000, 34.000000)">
                        <path d="M24.3419189,0 L0.65788067,0 C0.294529555,0 0,0.292785462 0,0.653836619 L0,33.3461324 C0,33.581742 0.127553748,33.7990235 0.333751163,33.9150354 C0.540015395,34.0312464 0.793185195,34.0278597 0.996375843,33.9067346 L3.9064588,32.1714046 L6.18418521,33.869215 C6.3981334,34.0288558 6.68785213,34.0435316 6.91743551,33.9067346 L9.82751847,32.1714046 L12.1052449,33.869215 C12.3191262,34.0288558 12.6090454,34.0435316 12.8384952,33.9067346 L15.7485781,32.1714046 L18.0263045,33.869215 C18.2402527,34.0288558 18.5301051,34.0435316 18.7595548,33.9067346 L21.6696378,32.1714046 L23.9473642,33.869215 C24.0634254,33.9557424 24.2023381,34 24.3421861,34 C24.4424785,34 24.5431718,33.9771253 24.6363816,33.9309729 C24.8592165,33.8202071 25,33.5936288 25,33.346066 L25,0.653836619 C25,0.292785462 24.70527,0 24.3419189,0 Z M23.6840382,32.0384592 L22.1050845,30.8614736 C21.8910695,30.7018328 21.6011503,30.6870242 21.3718342,30.823954 L18.4617512,32.5592839 L16.1840248,30.8614736 C16.0675627,30.7746141 15.9286501,30.7307195 15.7892029,30.7307195 C15.6724067,30.7307195 15.5553432,30.7615321 15.4507745,30.823954 L12.5406916,32.5592839 L10.2629652,30.8614736 C10.0489502,30.7018328 9.75909781,30.6870242 9.52971488,30.823954 L6.61963192,32.5592839 L4.34190552,30.8614736 C4.12789051,30.7018328 3.83797133,30.6870242 3.60865521,30.823954 L1.31562771,32.1913265 L1.31562771,1.30767324 L23.6840382,1.30767324 L23.6840382,32.0384592 L23.6840382,32.0384592 Z" id="Shape"></path>
                        <path d="M7.42857972,6 L4.57142028,6 C4.25587975,6 4,6.22389803 4,6.5 C4,6.77615275 4.25587975,7 4.57142028,7 L7.42857972,7 C7.74417829,7 8,6.77610197 8,6.5 C8,6.22389803 7.74412025,6 7.42857972,6 Z" id="Shape"></path>
                        <path d="M18.4285797,9 L15.5714203,9 C15.2558217,9 15,9.22389803 15,9.5 C15,9.77615275 15.2558797,10 15.5714203,10 L18.4285797,10 C18.7441783,10 19,9.77610197 19,9.5 C19.000058,9.22389803 18.7441783,9 18.4285797,9 Z" id="Shape"></path>
                        <path d="M18.4285797,12 L15.5714203,12 C15.2558217,12 15,12.223898 15,12.5 C15,12.7761528 15.2558797,13 15.5714203,13 L18.4285797,13 C18.7441783,13 19,12.776102 19,12.5 C19.000058,12.2238472 18.7441783,12 18.4285797,12 Z" id="Shape"></path>
                        <path d="M18.4285797,15 L15.5714203,15 C15.2558217,15 15,15.223898 15,15.5 C15,15.7761528 15.2558797,16 15.5714203,16 L18.4285797,16 C18.7441783,16 19,15.776102 19,15.5 C19.000058,15.223898 18.7441783,15 18.4285797,15 Z" id="Shape"></path>
                        <path d="M18.4285797,19 L15.5714203,19 C15.2558217,19 15,19.223898 15,19.5 C15,19.7761528 15.2558797,20 15.5714203,20 L18.4285797,20 C18.7441783,20 19,19.776102 19,19.5 C19.000058,19.223898 18.7441783,19 18.4285797,19 Z" id="Shape"></path>
                        <path d="M18.4285797,22 L15.5714203,22 C15.2558217,22 15,22.223898 15,22.5 C15,22.7761528 15.2558797,23 15.5714203,23 L18.4285797,23 C18.7441783,23 19,22.776102 19,22.5 C19.000058,22.2238472 18.7441783,22 18.4285797,22 Z" id="Shape"></path>
                        <path d="M14.3125087,9 L4.68749127,9 C4.30785588,9 4,9.22389803 4,9.5 C4,9.77615275 4.30785588,10 4.68749127,10 L14.3125087,10 C14.6922139,10 15,9.77610197 15,9.5 C15,9.22389803 14.6922139,9 14.3125087,9 Z" id="Shape"></path>
                        <path d="M14.3125087,12 L4.68749127,12 C4.30785588,12 4,12.223898 4,12.5 C4,12.7761528 4.30785588,13 4.68749127,13 L14.3125087,13 C14.6922139,13 15,12.776102 15,12.5 C15,12.2238472 14.6922139,12 14.3125087,12 Z" id="Shape"></path>
                        <path d="M14.3125087,15 L4.68749127,15 C4.30785588,15 4,15.223898 4,15.5 C4,15.7761528 4.30785588,16 4.68749127,16 L14.3125087,16 C14.6922139,16 15,15.776102 15,15.5 C15,15.223898 14.6922139,15 14.3125087,15 Z" id="Shape"></path>
                        <path d="M14.3125087,19 L4.68749127,19 C4.30785588,19 4,19.223898 4,19.5 C4,19.7761528 4.30785588,20 4.68749127,20 L14.3125087,20 C14.6922139,20 15,19.776102 15,19.5 C15,19.223898 14.6922139,19 14.3125087,19 Z" id="Shape"></path>
                        <path d="M14.3125087,22 L4.68749127,22 C4.30785588,22 4,22.223898 4,22.5 C4,22.7761528 4.30785588,23 4.68749127,23 L14.3125087,23 C14.6922139,23 15,22.776102 15,22.5 C15,22.2238472 14.6922139,22 14.3125087,22 Z" id="Shape"></path>
                    </g>
                </g>
            </g>
        </g>
    </g>
</svg>