<?xml version="1.0" encoding="UTF-8"?>
<svg width="34px" height="34px" viewBox="0 0 34 34" version="1.1" xmlns="http://www.w3.org/2000/svg" xmlns:xlink="http://www.w3.org/1999/xlink">
    <!-- Generator: Sketch 55.2 (78181) - https://sketchapp.com -->
    <title>settings</title>
    <desc>Created with Sketch.</desc>
    <g id="Web-transporteurs" stroke="none" stroke-width="1" fill="none" fill-rule="evenodd">
        <g id="TABLEAU-DE-BORD.-TRANSPORTEUR---Profil" transform="translate(-1207.000000, -152.000000)" fill="#5B6F81" fill-rule="nonzero">
            <g id="settings" transform="translate(1207.000000, 152.000000)">
                <path d="M32.2596794,13.4309588 L29.8732302,13.0261124 C29.6246417,12.223522 29.305028,11.449342 28.914389,10.7106747 L30.3206894,8.743263 C30.9173017,7.90515981 30.8249688,6.76164612 30.0934085,6.03718404 L27.9768554,3.92061834 C27.5791138,3.52287445 27.0535268,3.3026948 26.4924271,3.3026948 C26.0520704,3.3026948 25.6330213,3.43764362 25.277895,3.69333612 L23.3033923,5.09964487 C22.5363194,4.69479841 21.7337338,4.36097765 20.9027381,4.11238772 L20.5049966,1.75433466 C20.3345359,0.738667224 19.460925,0 18.4310586,0 L15.4408945,0 C14.4110281,0 13.5374172,0.738667224 13.3669565,1.75433466 L12.9550099,4.16920827 C12.1595269,4.4177982 11.3853514,4.7445164 10.6466885,5.14226029 L8.69349352,3.73595154 C8.33836715,3.48025903 7.9122155,3.34531022 7.47185881,3.34531022 C6.91075914,3.34531022 6.37806959,3.56548987 5.98743058,3.96323376 L3.8637749,6.07979946 C3.1393171,6.80426154 3.03988172,7.94777522 3.63649402,8.78587842 L5.0569995,10.7817004 C4.66636049,11.5274702 4.35384929,12.3016503 4.11236335,13.1042407 L1.75432426,13.5019845 C0.738662848,13.6724462 0,14.5460623 0,15.5759348 L0,18.5661166 C0,19.5959891 0.738662848,20.4696052 1.75432426,20.6400668 L4.16918357,21.0520159 C4.41777203,21.8475037 4.74448829,22.6216837 5.14222983,23.360351 L3.74303193,25.306455 C3.14641963,26.1445582 3.23875249,27.2880719 3.97031281,28.0125339 L6.08686597,30.1290996 C6.4846075,30.5268435 7.01019453,30.7470232 7.57129419,30.7470232 C8.01165089,30.7470232 8.4307,30.6120744 8.78582637,30.3563819 L10.7816366,28.935868 C11.4989918,29.3123042 12.2518597,29.6177146 13.0260352,29.859202 L13.4237768,32.2456653 C13.5942374,33.2613328 14.4678483,34 15.4977148,34 L18.4949813,34 C19.5248478,34 20.3984586,33.2613328 20.5689193,32.2456653 L20.9737634,29.859202 C21.776349,29.6106121 22.5505244,29.2909964 23.2891873,28.9003551 L25.2565874,30.3066639 C25.6117137,30.5623564 26.0378654,30.6973052 26.4782221,30.6973052 L26.4782221,30.6973052 C27.0393217,30.6973052 27.5649088,30.4771255 27.9626503,30.0793817 L30.0792035,27.962816 C30.8036613,27.2383539 30.9030966,26.0948402 30.3064843,25.256737 L28.9001839,23.2822227 C29.2908229,22.5364529 29.6175392,21.7622728 29.8590251,20.966785 L32.2454743,20.5690412 C33.2611357,20.3985795 34,19.5249634 34,18.4950909 L34,15.5049091 C34.0140036,14.4750366 33.2753408,13.6014205 32.2596794,13.4309588 Z M32.0963212,18.4950909 C32.0963212,18.5874243 32.0323985,18.6655525 31.9400656,18.6797577 L28.9570041,19.1769375 C28.5805702,19.2408607 28.282264,19.5178609 28.1899312,19.8800919 C27.9200351,20.9241696 27.5080886,21.9256319 26.9540914,22.8560685 C26.7623232,23.1827867 26.7765282,23.5876332 26.9967066,23.9001462 L28.7510308,26.3718404 C28.8007485,26.4428661 28.793646,26.5494046 28.7297233,26.6133278 L26.6131701,28.7298935 C26.5634524,28.7796114 26.5137347,28.786714 26.4782221,28.786714 C26.4356069,28.786714 26.4000943,28.7725089 26.3716842,28.7512012 L23.9071072,26.9968665 C23.6016985,26.7766869 23.1897519,26.7624817 22.8630356,26.9542511 C21.9326046,27.5082515 20.9311482,27.9202005 19.8870767,28.1900982 C19.5177452,28.2824316 19.2407467,28.5878421 19.1839265,28.9571757 L18.679647,31.9402549 C18.665442,32.0325883 18.5873142,32.0965114 18.4949813,32.0965114 L15.5048173,32.0965114 C15.4124844,32.0965114 15.3343566,32.0325883 15.3201516,31.9402549 L14.8229746,28.9571757 C14.7590519,28.5807395 14.4820533,28.2824316 14.1198244,28.1900982 C13.104163,27.9273031 12.1240142,27.5224567 11.2077882,26.9968665 C11.0586351,26.9116357 10.8881745,26.8690203 10.7248163,26.8690203 C10.5330481,26.8690203 10.3341773,26.9258408 10.1708192,27.0465845 L7.68493463,28.8151243 C7.64942199,28.836432 7.61390935,28.8506371 7.57839672,28.8506371 C7.54998661,28.8506371 7.49316639,28.8435346 7.4434487,28.7938166 L5.32689554,26.6772509 C5.26297279,26.6133278 5.25587026,26.5138918 5.30558796,26.4357635 L7.05280969,23.9853771 C7.27298804,23.672864 7.2871931,23.260915 7.09542486,22.9341968 C6.54142772,22.0108628 6.11527608,21.0094005 5.84538004,19.9653227 C5.74594465,19.6030917 5.4476385,19.3260915 5.07830708,19.2621684 L2.073938,18.7507834 C1.98160514,18.7365782 1.91768239,18.65845 1.91768239,18.5661166 L1.91768239,15.5759348 C1.91768239,15.4836014 1.98160514,15.4054732 2.073938,15.391268 L5.03569191,14.8940882 C5.41212587,14.830165 5.71753454,14.5531648 5.8098674,14.1838312 C6.07266091,13.1397535 6.47750497,12.1311886 7.02439958,11.200752 C7.21616782,10.8740338 7.19486024,10.4691874 6.97468189,10.1637769 L5.20615257,7.67787759 C5.15643488,7.60685189 5.16353741,7.50031335 5.22746015,7.43639022 L7.34401331,5.31982452 C7.39373101,5.27010654 7.4434487,5.26300397 7.47896133,5.26300397 C7.5215765,5.26300397 7.55708914,5.27720911 7.58549925,5.29851682 L10.0358712,7.0457489 C10.3483824,7.26592856 10.760329,7.2801337 11.0870452,7.08836432 C12.0103738,6.5343639 13.0118302,6.10820973 14.0559017,5.8383121 C14.4181306,5.73887612 14.6951292,5.44056821 14.7590519,5.07123459 L15.2704339,2.06684771 C15.2846389,1.97451431 15.3627667,1.91059118 15.4550996,1.91059118 L18.4452636,1.91059118 C18.5375965,1.91059118 18.6157243,1.97451431 18.6299293,2.06684771 L19.1271062,5.02861918 C19.191029,5.40505536 19.4680276,5.71046584 19.837359,5.80279925 C20.9098406,6.07269689 21.9326046,6.49174849 22.8843432,7.05285147 C23.2110595,7.24462085 23.6159035,7.23041571 23.9284148,7.01023606 L26.3787867,5.24879883 C26.4142993,5.22749112 26.449812,5.21328598 26.4853246,5.21328598 C26.5137347,5.21328598 26.5705549,5.22038855 26.6202726,5.27010654 L28.7368258,7.38667224 C28.8007485,7.45059536 28.8078511,7.55003133 28.7581334,7.6281596 L27.0038091,10.0927512 C26.7836308,10.3981617 26.7694257,10.8101107 26.9611939,11.1368289 C27.5151911,12.0672655 27.9271377,13.0687278 28.1970337,14.1128055 C28.2893666,14.4821391 28.5947752,14.7591393 28.9641067,14.8159599 L31.9471682,15.3202423 C32.039501,15.3344475 32.1034238,15.4125757 32.1034238,15.5049091 L32.1034238,18.4950909 L32.0963212,18.4950909 L32.0963212,18.4950909 Z" id="Shape"></path>
                <path d="M17.5,10 C13.3615682,10 10,13.3615682 10,17.5 C10,21.6384318 13.3615682,25 17.5,25 C21.6384318,25 25,21.6384318 25,17.5 C25,13.3615682 21.6384318,10 17.5,10 Z M17.5,23.0396902 C14.4433688,23.0396902 11.9603098,20.5566312 11.9603098,17.5 C11.9603098,14.4433688 14.4433688,11.9603098 17.5,11.9603098 C20.5566312,11.9603098 23.0396902,14.4433688 23.0396902,17.5 C23.0396902,20.5566312 20.5566312,23.0396902 17.5,23.0396902 Z" id="Shape"></path>
            </g>
        </g>
    </g>
</svg>