<?xml version="1.0" encoding="UTF-8"?>
<svg width="14px" height="24px" viewBox="0 0 14 24" version="1.1" xmlns="http://www.w3.org/2000/svg" xmlns:xlink="http://www.w3.org/1999/xlink">
    <!-- Generator: Sketch 55.2 (78181) - https://sketchapp.com -->
    <title>smartphone-call</title>
    <desc>Created with Sketch.</desc>
    <g id="Web-transporteurs" stroke="none" stroke-width="1" fill="none" fill-rule="evenodd">
        <g id="TABLEAU-DE-BORD.-TRANSPORTEUR---Profil" transform="translate(-268.000000, -607.000000)" fill="#B0B2B8" fill-rule="nonzero">
            <g id="Group-6" transform="translate(212.000000, 223.000000)">
                <g id="COORDONNEES" transform="translate(33.000000, 33.000000)">
                    <g id="Login" transform="translate(0.000000, 350.545585)">
                        <g id="smartphone-call" transform="translate(23.000000, 0.454415)">
                            <path d="M12.2013333,0 L1.79866667,0 C0.932,0 0.222666667,0.708666667 0.222666667,1.576 L0.222666667,21.7566667 C0.222666667,22.624 0.932,23.3333333 1.79866667,23.3333333 L12.2013333,23.3333333 C13.068,23.3333333 13.7773333,22.6253333 13.7773333,21.7573333 L13.7773333,1.576 C13.7773333,0.708666667 13.068,0 12.2013333,0 Z M5.336,1.136 L8.664,1.136 C8.76933333,1.136 8.85466667,1.22133333 8.85466667,1.32733333 C8.85466667,1.43266667 8.76933333,1.518 8.664,1.518 L5.336,1.518 C5.23066667,1.518 5.14533333,1.43266667 5.14533333,1.32733333 C5.14533333,1.22133333 5.23066667,1.136 5.336,1.136 Z M7,22.5453333 C6.56466667,22.5453333 6.212,22.1926667 6.212,21.7566667 C6.212,21.3206667 6.56466667,20.9686667 7,20.9686667 C7.43533333,20.9686667 7.788,21.3206667 7.788,21.7566667 C7.788,22.1926667 7.43533333,22.5453333 7,22.5453333 Z M12.6806667,20.4166667 L1.31933333,20.4166667 L1.31933333,2.49933333 L12.6806667,2.49933333 L12.6806667,20.4166667 Z" id="Shape"></path>
                        </g>
                    </g>
                </g>
            </g>
        </g>
    </g>
</svg>