<?xml version="1.0" encoding="UTF-8"?>
<svg width="43px" height="43px" viewBox="0 0 43 43" version="1.1" xmlns="http://www.w3.org/2000/svg" xmlns:xlink="http://www.w3.org/1999/xlink">
    <!-- Generator: Sketch 55.2 (78181) - https://sketchapp.com -->
    <title>Start Point</title>
    <desc>Created with Sketch.</desc>
    <g id="Web-transporteurs" stroke="none" stroke-width="1" fill="none" fill-rule="evenodd">
        <g id="HOME---affreteurs" transform="translate(-225.000000, -287.000000)">
            <g id="bloc-affreteur-liste" transform="translate(170.000000, 255.000000)">
                <g id="Start-Point" transform="translate(55.000000, 33.000000)">
                    <circle id="Oval" stroke="#27AC60" stroke-width="2" fill="#FFFFFF" cx="21.3757576" cy="20.3757576" r="20.3757576"></circle>
                    <g id="package" transform="translate(0.000000, 8.000000)" fill="#27AC60" fill-rule="nonzero">
                        <path d="M31.9904067,5.84914521 C31.9904067,5.75891726 31.97122,5.66868932 31.9328466,5.58347404 C31.8560999,5.41304348 31.7074031,5.29775222 31.5443163,5.26266357 L21.7734984,0.310151963 C21.6152083,0.229949346 21.4281381,0.229949346 21.269848,0.310151963 L11.4030967,5.30777754 C11.2112299,5.40301815 11.0865164,5.60352469 11.0769231,5.82909455 L11.0769231,5.83410722 C11.0769231,5.83911988 11.0769231,5.84413255 11.0769231,5.85415787 L11.0769231,18.3958421 C11.0769231,18.6264247 11.2016365,18.8369565 11.4030967,18.9372098 L21.269848,23.9348354 C21.2746447,23.9348354 21.2746447,23.9348354 21.2794413,23.939848 C21.2938313,23.9448607 21.3082214,23.9498734 21.3226114,23.9598987 C21.327408,23.9598987 21.3322047,23.9649114 21.341798,23.9649114 C21.3561881,23.969924 21.3705781,23.9749367 21.3849681,23.9799493 C21.3897648,23.9799493 21.3945614,23.984962 21.3993581,23.984962 C21.4137481,23.9899747 21.4329348,23.9899747 21.4473248,23.9949873 C21.4521215,23.9949873 21.4569181,23.9949873 21.4617148,23.9949873 C21.4809015,23.9949873 21.5048848,24 21.5240715,24 C21.5432582,24 21.5672416,24 21.5864282,23.9949873 C21.5912249,23.9949873 21.5960216,23.9949873 21.6008183,23.9949873 C21.6152083,23.9949873 21.6343949,23.9899747 21.648785,23.984962 C21.6535816,23.984962 21.6583783,23.9799493 21.663175,23.9799493 C21.677565,23.9749367 21.691955,23.969924 21.706345,23.9649114 C21.7111417,23.9649114 21.7159383,23.9598987 21.7255317,23.9598987 C21.7399217,23.954886 21.7543117,23.9498734 21.7687017,23.939848 C21.7734984,23.939848 21.7734984,23.939848 21.7782951,23.9348354 L31.6738264,18.9221718 C31.8704899,18.8219185 32,18.6113867 32,18.3808041 L32,5.8641832 C31.9904067,5.85917054 31.9904067,5.85415787 31.9904067,5.84914521 Z M21.5192749,1.51820388 L30.0765351,5.85415787 L26.9251226,7.45319755 L18.3678623,3.11724356 L21.5192749,1.51820388 Z M21.5192749,10.1901119 L12.9620146,5.85415787 L17.0487779,3.78392782 L25.6060382,8.11988181 L21.5192749,10.1901119 Z M12.228124,6.82160194 L20.9436744,11.2377585 L20.9436744,22.4310363 L12.228124,18.0148797 L12.228124,6.82160194 Z M22.0948753,22.4310363 L22.0948753,11.2377585 L26.1864353,9.16251583 L26.1864353,12.0899114 C26.1864353,12.4207472 26.4454555,12.691431 26.7620358,12.691431 C27.078616,12.691431 27.3376362,12.4207472 27.3376362,12.0899114 L27.3376362,8.57603419 L30.8392057,6.80155129 L30.8392057,17.994829 L22.0948753,22.4310363 Z" id="Shape"></path>
                    </g>
                </g>
            </g>
        </g>
    </g>
</svg>