<?xml version="1.0" encoding="UTF-8"?>
<svg width="11px" height="10px" viewBox="0 0 11 10" version="1.1" xmlns="http://www.w3.org/2000/svg" xmlns:xlink="http://www.w3.org/1999/xlink">
    <!-- Generator: Sketch 55.2 (78181) - https://sketchapp.com -->
    <title>Shape</title>
    <desc>Created with Sketch.</desc>
    <g id="Web-transporteurs" stroke="none" stroke-width="1" fill="none" fill-rule="evenodd">
        <g id="Transporteur---TRANSPORTEUR---fiche" transform="translate(-521.000000, -255.000000)" fill="#FFBA00" fill-rule="nonzero">
            <g id="Group-8" transform="translate(300.000000, 181.000000)">
                <g id="Group-3" transform="translate(184.000000, 74.000000)">
                    <path d="M47.4846575,3.80658436 C47.4446201,3.66255144 47.3044892,3.55967078 47.1643582,3.51851852 L44.1815712,3.06584362 L42.840318,0.226337449 C42.7802619,0.0823045267 42.6201122,0 42.4799813,0 C42.3198317,0 42.1797007,0.0823045267 42.1196446,0.226337449 L40.7984101,3.04526749 L37.8356418,3.51851852 C37.6955108,3.53909465 37.5553799,3.64197531 37.5153425,3.80658436 C37.4753051,3.95061728 37.5153425,4.11522634 37.615436,4.218107 L39.7574374,6.39917695 L39.2369511,9.48559671 C39.2169324,9.65020576 39.2769885,9.79423868 39.3971007,9.89711934 C39.517213,9.97942387 39.6773626,10 39.8174935,9.91769547 L42.4599626,8.47736626 L45.1224503,9.95884774 C45.1825065,10 45.2425626,10 45.3226374,10 C45.4027122,10 45.482787,9.97942387 45.5628619,9.91769547 C45.6829741,9.83539095 45.7430302,9.67078189 45.7230115,9.50617284 L45.2025252,6.41975309 L47.384564,4.218107 C47.4846575,4.11522634 47.5246949,3.95061728 47.4846575,3.80658436 Z" id="Shape"></path>
                </g>
            </g>
        </g>
    </g>
</svg>