<?xml version="1.0" encoding="UTF-8"?>
<svg width="10px" height="10px" viewBox="0 0 10 10" version="1.1" xmlns="http://www.w3.org/2000/svg" xmlns:xlink="http://www.w3.org/1999/xlink">
    <!-- Generator: Sketch 55.2 (78181) - https://sketchapp.com -->
    <title>Shape</title>
    <desc>Created with Sketch.</desc>
    <g id="Web-transporteurs" stroke="none" stroke-width="1" fill="none" fill-rule="evenodd">
        <g id="Transporteur---TRANSPORTEUR---fiche" transform="translate(-534.000000, -255.000000)" fill="#CED0D2" fill-rule="nonzero">
            <g id="Group-8" transform="translate(300.000000, 181.000000)">
                <g id="Group-3" transform="translate(184.000000, 74.000000)">
                    <path d="M59.9846575,3.80658436 C59.9446201,3.66255144 59.8044892,3.55967078 59.6643582,3.51851852 L56.6815712,3.06584362 L55.340318,0.226337449 C55.2802619,0.0823045267 55.1201122,0 54.9799813,0 C54.8198317,0 54.6797007,0.0823045267 54.6196446,0.226337449 L53.2984101,3.04526749 L50.3356418,3.51851852 C50.1955108,3.53909465 50.0553799,3.64197531 50.0153425,3.80658436 C49.9753051,3.95061728 50.0153425,4.11522634 50.115436,4.218107 L52.2574374,6.39917695 L51.7369511,9.48559671 C51.7169324,9.65020576 51.7769885,9.79423868 51.8971007,9.89711934 C52.017213,9.97942387 52.1773626,10 52.3174935,9.91769547 L54.9599626,8.47736626 L57.6224503,9.95884774 C57.6825065,10 57.7425626,10 57.8226374,10 C57.9027122,10 57.982787,9.97942387 58.0628619,9.91769547 C58.1829741,9.83539095 58.2430302,9.67078189 58.2230115,9.50617284 L57.7025252,6.41975309 L59.884564,4.218107 C59.9846575,4.11522634 60.0246949,3.95061728 59.9846575,3.80658436 Z" id="Shape"></path>
                </g>
            </g>
        </g>
    </g>
</svg>