<?xml version="1.0" encoding="UTF-8"?>
<svg width="61px" height="59px" viewBox="0 0 61 59" version="1.1" xmlns="http://www.w3.org/2000/svg" xmlns:xlink="http://www.w3.org/1999/xlink">
    <!-- Generator: Sketch 55.2 (78181) - https://sketchapp.com -->
    <title>Group 9</title>
    <desc>Created with Sketch.</desc>
    <g id="Web-transporteurs" stroke="none" stroke-width="1" fill="none" fill-rule="evenodd">
        <g id="MISSION-EN-COURS-PLAN---transporteur---ajouter-une-course-3" transform="translate(-268.000000, -640.000000)">
            <g id="bloc-confier-mission-a-transporteur" transform="translate(-9.000000, 120.000000)">
                <g id="Group-8" transform="translate(0.000000, 96.000000)">
                    <g id="Group-2" transform="translate(61.000000, 369.000000)">
                        <g id="Group-9" transform="translate(217.000000, 56.000000)">
                            <ellipse id="Oval-2" stroke="#686C77" cx="29.5" cy="28.5" rx="29.5" ry="28.5"></ellipse>
                            <g id="package" transform="translate(18.220588, 25.985294)" fill="#606470" fill-rule="nonzero">
                                <path d="M19.9467325,4.94042224 C19.9467325,4.86080935 19.9284327,4.78119646 19.8918332,4.70600651 C19.8186342,4.5556266 19.6768111,4.45389901 19.5212632,4.42293845 L10.2021132,0.0530752613 C10.0511402,-0.0176917538 9.87271759,-0.0176917538 9.72174461,0.0530752613 L0.311095828,4.46274489 C0.128098282,4.54678072 0.00914987728,4.72369826 0,4.92273049 L0,4.92715343 C0,4.93157637 0,4.9359993 0,4.94484518 L0,16.0110372 C0,16.2144923 0.118948405,16.4002558 0.311095828,16.4887145 L9.72174461,20.8983842 C9.72631955,20.8983842 9.72631955,20.8983842 9.73089449,20.9028071 C9.74461931,20.90723 9.75834412,20.911653 9.77206894,20.9204988 C9.77664388,20.9204988 9.78121881,20.9249218 9.79036869,20.9249218 C9.80409351,20.9293447 9.81781832,20.9337677 9.83154314,20.9381906 C9.83611808,20.9381906 9.84069302,20.9426135 9.84526796,20.9426135 C9.85899277,20.9470365 9.87729253,20.9470365 9.89101734,20.9514594 C9.89559228,20.9514594 9.90016722,20.9514594 9.90474216,20.9514594 C9.92304191,20.9514594 9.94591661,20.9558824 9.96421636,20.9558824 C9.98251612,20.9558824 10.0053908,20.9558824 10.0236906,20.9514594 C10.0282655,20.9514594 10.0328404,20.9514594 10.0374154,20.9514594 C10.0511402,20.9514594 10.0694399,20.9470365 10.0831648,20.9426135 C10.0877397,20.9426135 10.0923146,20.9381906 10.0968896,20.9381906 C10.1106144,20.9337677 10.1243392,20.9293447 10.138064,20.9249218 C10.142639,20.9249218 10.1472139,20.9204988 10.1563638,20.9204988 C10.1700886,20.9160759 10.1838134,20.911653 10.1975382,20.9028071 C10.2021132,20.9028071 10.2021132,20.9028071 10.2066881,20.8983842 L19.6447865,16.4754457 C19.832359,16.3869869 19.9558824,16.2012235 19.9558824,15.9977684 L19.9558824,4.95369106 C19.9467325,4.94926812 19.9467325,4.94484518 19.9467325,4.94042224 Z M9.95964142,1.11900343 L18.121332,4.94484518 L15.1155973,6.35576255 L6.95390673,2.52992079 L9.95964142,1.11900343 Z M9.95964142,8.77068694 L1.79795089,4.94484518 L5.69579861,3.1181716 L13.8574891,6.94401336 L9.95964142,8.77068694 Z M1.09798527,5.7984723 L9.41064878,9.69508107 L9.41064878,19.5715026 L1.09798527,15.6748938 L1.09798527,5.7984723 Z M10.5086341,19.5715026 L10.5086341,9.69508107 L14.4110567,7.86398456 L14.4110567,10.4469806 C14.4110567,10.7388945 14.6581034,10.9777332 14.9600494,10.9777332 C15.2619953,10.9777332 15.509042,10.7388945 15.509042,10.4469806 L15.509042,7.34650076 L18.8487472,5.78078055 L18.8487472,15.6572021 L10.5086341,19.5715026 Z" id="Shape"></path>
                            </g>
                            <polyline id="Shape" stroke="#606470" stroke-width="2" stroke-linecap="round" stroke-linejoin="round" points="35.5735294 10.0588235 26.4966063 20.1176471 20.8235294 15.6470588"></polyline>
                        </g>
                    </g>
                </g>
            </g>
        </g>
    </g>
</svg>