<?xml version="1.0" encoding="UTF-8"?>
<svg width="47px" height="47px" viewBox="0 0 47 47" version="1.1" xmlns="http://www.w3.org/2000/svg" xmlns:xlink="http://www.w3.org/1999/xlink">
    <!-- Generator: Sketch 55.2 (78181) - https://sketchapp.com -->
    <title>analytics</title>
    <desc>Created with Sketch.</desc>
    <g id="Symbols" stroke="none" stroke-width="1" fill="none" fill-rule="evenodd">
        <g id="header-transporteur" transform="translate(-844.000000, -16.000000)" fill="#F9AE02" fill-rule="nonzero">
            <g id="header-affreteur-">
                <g id="Group-8" transform="translate(797.000000, 12.000000)">
                    <g id="analytics" transform="translate(47.627329, 4.397590)">
                        <path d="M40.5528604,4.3572455 L40.5528604,21.0600199 L46.3461262,21.0600199 L46.3461262,4.3572455 L40.5528604,4.3572455 Z M44.8978097,19.5415859 L42.0011769,19.5415859 L42.0011769,5.87567953 L44.8978097,5.87567953 L44.8978097,19.5415859 Z" id="Shape"></path>
                        <path d="M33.0795476,11.8812208 C32.5975479,11.4492145 32.0952138,11.0443973 31.5732985,10.6690351 L31.5732985,10.2830994 L31.0061957,10.2830994 C28.0712693,8.3360497 24.6016245,7.26207583 21.0295548,7.26207583 L20.2764302,7.26207583 L20.2764302,26.143473 L39.104544,26.143473 L39.104544,25.3882171 C39.104544,23.8535371 38.9019535,22.3354728 38.5216256,20.8566818 L39.104544,20.8566818 L39.104544,7.26207583 L33.0795476,7.26207583 L33.0795476,11.8812208 Z M21.7826793,24.6329612 L21.7826793,8.78920323 C23.9140218,8.88738649 25.9903862,9.40624729 27.9048288,10.2830994 L25.5483021,10.2830994 L25.5483021,20.8566818 L31.5732985,20.8566818 L31.5732985,12.5994692 C32.1004856,13.0360071 32.6065853,13.4989789 33.0795476,14.0019794 L33.0795476,20.8566818 L36.9626577,20.8566818 C37.3106013,22.0885041 37.5237355,23.3528025 37.5817261,24.6329612 L21.7826793,24.6329612 Z M30.0670494,11.7936111 L30.0670494,19.34617 L27.0545512,19.34617 L27.0545512,11.7936111 L30.0670494,11.7936111 Z M34.5857967,8.7725876 L37.5982949,8.7725876 L37.5982949,19.34617 L34.5857967,19.34617 L34.5857967,8.7725876 Z" id="Shape"></path>
                        <polygon id="Rectangle-path" transform="translate(9.414057, 26.143473) rotate(-45.000000) translate(-9.414057, -26.143473) " points="5.06910755 25.4172654 13.7590062 25.4172654 13.7590062 26.8696806 5.06910755 26.8696806"></polygon>
                        <path d="M8.68989866,23.2386426 C8.68989866,22.0374953 7.71518169,21.0600199 6.51742399,21.0600199 C5.3196663,21.0600199 4.34494933,22.0374953 4.34494933,23.2386426 C4.34494933,24.43979 5.3196663,25.4172654 6.51742399,25.4172654 C7.71518169,25.4172654 8.68989866,24.43979 8.68989866,23.2386426 Z M5.79326577,23.2386426 C5.79326577,22.8377761 6.11768866,22.5124351 6.51742399,22.5124351 C6.91715933,22.5124351 7.24158222,22.8377761 7.24158222,23.2386426 C7.24158222,23.6395092 6.91715933,23.9648502 6.51742399,23.9648502 C6.11768866,23.9648502 5.79326577,23.6395092 5.79326577,23.2386426 Z" id="Shape"></path>
                        <path d="M13.034848,26.8696806 C11.8370903,26.8696806 10.8623733,27.847156 10.8623733,29.0483033 C10.8623733,30.2494506 11.8370903,31.2269261 13.034848,31.2269261 C14.2326057,31.2269261 15.2073227,30.2494506 15.2073227,29.0483033 C15.2073227,27.847156 14.2326057,26.8696806 13.034848,26.8696806 Z M13.034848,29.7745109 C12.6351127,29.7745109 12.3106898,29.4491699 12.3106898,29.0483033 C12.3106898,28.6474367 12.6351127,28.3220957 13.034848,28.3220957 C13.4345833,28.3220957 13.7590062,28.6474367 13.7590062,29.0483033 C13.7590062,29.4491699 13.4345833,29.7745109 13.034848,29.7745109 Z" id="Shape"></path>
                        <path d="M33.0003867,38.563403 C35.0335181,35.5791115 36.1178047,32.1135552 36.1178047,28.4860781 L36.1178047,27.7364444 L18.8113566,27.7364444 L18.8113566,10.4948709 L18.0589023,10.4948709 C17.3154775,10.4948709 16.559261,10.560089 15.8015395,10.6552925 L15.8015395,0 L0,0 L0,10.4948709 L9.47038937,10.4948709 L10.9399325,11.9589054 C4.35294792,14.7767782 0,21.2731033 0,28.4860781 C0,38.40598 8.10167506,46.4772853 18.0589023,46.4772853 C22.4253944,46.4772853 26.5849616,44.9045539 29.8716818,42.0641921 L32.1997753,44.3835585 C32.6572675,44.8393358 33.2592309,45.0679741 33.8604419,45.0679741 C34.4616528,45.0679741 35.0636163,44.8393358 35.5211085,44.3835585 C36.4368453,43.4712544 36.4368453,41.9869798 35.5211085,41.0746757 L33.0003867,38.563403 Z M10.0934215,8.9956036 L1.50490853,8.9956036 L1.50490853,1.49926727 L14.296631,1.49926727 L14.296631,13.1830571 L10.0934215,8.9956036 Z M18.0589023,44.978018 C8.93087966,44.978018 1.50490853,37.5798837 1.50490853,28.4860781 C1.50490853,21.6711587 5.74574076,15.5571468 12.0972072,13.1118419 L15.8015395,16.8022883 L15.8015395,12.1590575 C16.3049315,12.0900912 16.8083234,12.0346184 17.3064481,12.0113797 L17.3064481,29.2357117 L34.5963422,29.2357117 C34.4646627,32.1930164 33.5429062,35.0138878 31.9191099,37.4861795 L30.7189453,36.2905138 C30.8017153,35.9509298 30.8506248,35.5978524 30.8506248,35.2327808 C30.8506248,32.7522431 28.8257704,30.734979 26.3358992,30.734979 C23.8460281,30.734979 21.8211737,32.7522431 21.8211737,35.2327808 C21.8211737,37.7133185 23.8460281,39.7305826 26.3358992,39.7305826 C26.7023445,39.7305826 27.0567504,39.6818564 27.3976122,39.5993967 L28.8047017,41.0012116 C25.805419,43.5619601 22.0258412,44.978018 18.0589023,44.978018 Z M29.3457163,35.2327808 C29.3457163,36.8864726 27.9958134,38.2313153 26.3358992,38.2313153 C24.6759851,38.2313153 23.3260822,36.8864726 23.3260822,35.2327808 C23.3260822,33.579089 24.6759851,32.2342462 26.3358992,32.2342462 C27.9958134,32.2342462 29.3457163,33.579089 29.3457163,35.2327808 Z M34.4571381,43.3235766 C34.1275632,43.6519161 33.5933206,43.6519161 33.2637457,43.3235766 L28.8739275,38.950214 C29.3427065,38.6316197 29.7475269,38.2283168 30.0673199,37.761295 L34.4571381,42.1346576 C34.7859606,42.4629972 34.7859606,42.9952371 34.4571381,43.3235766 Z" id="Shape"></path>
                        <polygon id="Rectangle-path" points="2.89663289 2.90483033 12.3106898 2.90483033 12.3106898 4.3572455 2.89663289 4.3572455"></polygon>
                        <polygon id="Rectangle-path" points="2.89663289 5.80966066 12.3106898 5.80966066 12.3106898 7.26207583 2.89663289 7.26207583"></polygon>
                        <polygon id="Rectangle-path" points="25.3455378 34.1317564 26.7938542 34.1317564 26.7938542 35.5841715 25.3455378 35.5841715"></polygon>
                        <polygon id="Rectangle-path" points="18.8281138 34.1317564 20.2764302 34.1317564 20.2764302 35.5841715 18.8281138 35.5841715"></polygon>
                        <polygon id="Rectangle-path" points="15.9314809 34.1317564 17.3797973 34.1317564 17.3797973 35.5841715 15.9314809 35.5841715"></polygon>
                        <polygon id="Rectangle-path" points="13.034848 34.1317564 14.4831644 34.1317564 14.4831644 35.5841715 13.034848 35.5841715"></polygon>
                    </g>
                </g>
            </g>
        </g>
    </g>
</svg>