<?xml version="1.0" encoding="UTF-8"?>
<svg width="61px" height="59px" viewBox="0 0 61 59" version="1.1" xmlns="http://www.w3.org/2000/svg" xmlns:xlink="http://www.w3.org/1999/xlink">
    <!-- Generator: Sketch 55.2 (78181) - https://sketchapp.com -->
    <title>Group 9</title>
    <desc>Created with Sketch.</desc>
    <g id="Web-transporteurs" stroke="none" stroke-width="1" fill="none" fill-rule="evenodd" opacity="0.38">
        <g id="MISSION-EN-COURS-PLAN---transporteur---ajouter-une-course-3" transform="translate(-95.000000, -640.000000)">
            <g id="bloc-confier-mission-a-transporteur" transform="translate(-9.000000, 120.000000)">
                <g id="Group-8" transform="translate(0.000000, 96.000000)">
                    <g id="Group-2" transform="translate(61.000000, 369.000000)">
                        <g id="Group-9" transform="translate(44.000000, 56.000000)">
                            <g id="trolley-(1)" transform="translate(13.014706, 16.764706)" fill="#606470" fill-rule="nonzero">
                                <path d="M12.580764,20.1176471 C11.3828913,20.1176471 10.4117647,21.0558029 10.4117647,22.2132353 C10.4117647,23.3706677 11.3828913,24.3088235 12.580764,24.3088235 C13.7788734,24.3088235 14.75,23.3706677 14.75,22.2132353 C14.7469231,21.0571748 13.77769,20.1206195 12.580764,20.1176471 Z M12.580764,23.1381294 C12.0520054,23.1381294 11.6236019,22.7240421 11.6236019,22.2132353 C11.6236019,21.7024285 12.0520054,21.2883412 12.580764,21.2883412 C13.1095227,21.2883412 13.5381628,21.7024285 13.5381628,22.2132353 C13.5369793,22.7235847 13.1090493,23.1369861 12.580764,23.1381294 L12.580764,23.1381294 Z" id="Shape"></path>
                                <path d="M26.9906134,16.6648154 L16.0429398,20.1405768 C15.2158542,18.5403577 13.394324,17.6573168 11.5693265,17.9718765 L6.31439696,2.58542903 C5.98175965,1.61388341 5.13479436,0.888679597 4.09527394,0.6849181 L0.710417834,0.0116579188 C0.390031977,-0.0514323708 0.0772743401,0.147870506 0.0120875717,0.456633853 C-0.0533303406,0.76562012 0.153325521,1.06702667 0.473711378,1.13011695 L3.85856748,1.7978038 C4.48200234,1.92130912 4.98985788,2.35647597 5.1900413,2.93922504 L10.4449708,18.3198762 C8.5899227,19.2015795 7.67961997,21.2568065 8.30120556,23.158878 C8.92279115,25.0609495 10.8904136,26.2411612 12.9343183,25.9379712 C14.9782231,25.6345582 16.4869956,23.9384776 16.4867644,21.9438886 C16.4872268,21.6988843 16.4634174,21.4543259 16.4157988,21.2135574 L27.3574622,17.7435922 C27.6665213,17.6441637 27.8354983,17.3238078 27.7363312,17.0244077 C27.6873256,16.8810612 27.5812238,16.7624604 27.4411416,16.6949115 C27.3010595,16.6273625 27.1390173,16.6166617 26.9906134,16.6648154 Z M12.2970139,24.8489394 C10.6368325,24.8489394 9.29102686,23.5507957 9.29102686,21.9496849 C9.29102686,20.3485741 10.6368325,19.0504303 12.2970139,19.0504303 C13.9574265,19.0504303 15.3032321,20.3485741 15.3032321,21.9496849 C15.3009206,23.549904 13.9562707,24.8467101 12.2970139,24.8489394 Z" id="Shape"></path>
                                <path d="M11.0930489,9.8879159 C11.0980999,9.92112413 11.105906,9.95410641 11.1166969,9.98618512 C11.1267989,10.0184897 11.1405744,10.0494389 11.1577938,10.0785807 L13.5088158,17.1110408 C13.6695301,17.5996759 14.0233314,18.0038221 14.4903215,18.232891 C14.7656023,18.3697901 15.069582,18.4409506 15.3779241,18.4411765 C15.5875416,18.440047 15.7955519,18.4068387 15.9950673,18.3429073 L25.5460939,15.248896 C26.5774211,14.9125216 27.1373959,13.818232 26.7978294,12.8025577 L23.8002764,3.84447321 C23.639562,3.35583808 23.2857608,2.95146595 22.8187707,2.72239709 C22.3520102,2.4906173 21.8106323,2.45108376 21.3142544,2.61260671 L11.7632279,5.70661804 C11.2666205,5.86475232 10.8556508,6.21287382 10.6228445,6.67236701 C10.3872831,7.1316343 10.3471045,7.66432115 10.5112628,8.15295628 L11.0930489,9.8879159 Z M25.175762,14.1500882 L15.6247355,17.2440996 C15.209174,17.3771583 14.7626176,17.1548666 14.6255512,16.7466541 L12.4272079,10.1712023 L23.4829803,6.59149262 L25.681094,13.1669444 C25.8142573,13.5753828 25.5890276,14.0134149 25.175762,14.1500882 Z M12.1333302,6.8054258 L21.6843567,3.71141447 C21.7637956,3.68385388 21.8471374,3.67029951 21.9313977,3.67095304 C22.0560661,3.67075129 22.1791274,3.70057097 22.2897907,3.75772523 C22.4773674,3.84966901 22.6192553,4.01232147 22.683541,4.208634 L23.1126484,5.49268485 L12.0571056,9.07239449 L11.6279982,7.78856959 C11.5607278,7.59225706 11.57634,7.3776462 11.6713911,7.19285489 C11.7664422,7.00783776 11.9328964,6.86845359 12.1333302,6.8054258 Z" id="Shape"></path>
                            </g>
                            <ellipse id="Oval-2" stroke="#686C77" cx="29.5" cy="28.5" rx="29.5" ry="28.5"></ellipse>
                        </g>
                    </g>
                </g>
            </g>
        </g>
    </g>
</svg>