<?xml version="1.0" encoding="UTF-8"?>
<svg width="61px" height="59px" viewBox="0 0 61 59" version="1.1" xmlns="http://www.w3.org/2000/svg" xmlns:xlink="http://www.w3.org/1999/xlink">
    <!-- Generator: Sketch 55.2 (78181) - https://sketchapp.com -->
    <title>Group 9</title>
    <desc>Created with Sketch.</desc>
    <g id="Web-transporteurs" stroke="none" stroke-width="1" fill="none" fill-rule="evenodd">
        <g id="MISSION-EN-COURS-PLAN---transporteur---ajouter-une-course-3" transform="translate(-181.000000, -640.000000)">
            <g id="bloc-confier-mission-a-transporteur" transform="translate(-9.000000, 120.000000)">
                <g id="Group-8" transform="translate(0.000000, 96.000000)">
                    <g id="Group-2" transform="translate(61.000000, 369.000000)">
                        <g id="Group-9" transform="translate(130.000000, 56.000000)">
                            <g id="delivery-truck" transform="translate(13.882353, 18.898505)" fill="#606470" fill-rule="nonzero">
                                <path d="M27.7527102,13.9829846 C27.644357,13.4257627 26.6874521,8.51812547 26.4510706,7.80161644 C25.8827349,6.07892894 24.5173053,4.1178199 22.7986208,2.5556639 C21.0116621,0.931512652 19.1602407,0 17.7189695,0 L3.69908706,0 C2.9725097,0 2.38135982,0.596534639 2.38135982,1.32973035 L2.38135982,3.41912884 L1.41060941,3.41912884 C1.05460781,3.41912884 0.765983614,3.7103821 0.765983614,4.0696265 C0.765983614,4.42887091 1.05460781,4.72012417 1.41060941,4.72012417 L2.38130376,4.72012417 L2.38130376,6.27181563 L0.644625801,6.27181563 C0.288624195,6.27181563 0,6.56306889 0,6.9223133 C0,7.2815577 0.288624195,7.57281096 0.644625801,7.57281096 L2.38130376,7.57281096 L2.38130376,14.108163 C2.38130376,14.8413587 2.97245365,15.4378368 3.69903101,15.4378368 L5.30622326,15.4378368 C5.54652855,17.0492609 6.92765334,18.2887701 8.59045158,18.2887701 C10.2532498,18.2887701 11.6343746,17.0492609 11.8746238,15.4378368 L17.787468,15.4378368 C18.0277172,17.0492609 19.4088981,18.2887701 21.0716963,18.2887701 C22.7344946,18.2887701 24.1156194,17.0492609 24.3558686,15.4378368 L26.4469226,15.4378368 C27.173556,15.4378368 27.7647059,14.8413587 27.7647059,14.108163 C27.7647059,14.0661918 27.76067,14.0242771 27.7527102,13.9829846 Z M25.1540274,8.00281819 L18.5114669,8.00281819 L18.5114669,1.41729299 C20.8646874,2.05506353 24.1263818,5.21444582 25.1540274,8.00281819 Z M8.59050764,16.9878313 C7.46997983,16.9878313 6.55831079,16.0679145 6.55831079,14.9371233 C6.55831079,13.8063886 7.46997983,12.8864718 8.59050764,12.8864718 C9.71103544,12.8864718 10.6226484,13.8063886 10.6226484,14.9371233 C10.6225924,16.0679145 9.71103544,16.9878313 8.59050764,16.9878313 Z M21.0717524,16.9878313 C19.9512246,16.9877747 19.0395555,16.0678579 19.0395555,14.9371233 C19.0395555,13.8063886 19.9512246,12.8864718 21.0717524,12.8864718 C22.1922802,12.8864718 23.1038932,13.8063886 23.1038932,14.9371233 C23.1038932,16.0679145 22.1922802,16.9878313 21.0717524,16.9878313 Z M26.4150837,14.136898 C25.8775218,14.136898 24.2967312,14.136898 24.2967312,14.136898 C23.940169,12.6740702 22.629897,11.5855331 21.0717524,11.5855331 C19.5136077,11.5855331 18.2032797,12.6740702 17.8467175,14.136898 L11.8154864,14.136898 C11.4589243,12.6740702 10.1486523,11.5855331 8.59050764,11.5855331 C7.03236299,11.5855331 5.72203493,12.6740702 5.36547278,14.136898 L3.69908706,14.136898 C3.68339182,14.136898 3.67055536,14.1240012 3.67055536,14.1082196 L3.67055536,7.57286752 L11.5705847,7.57286752 C11.9265863,7.57286752 12.2152105,7.28161426 12.2152105,6.92236986 C12.2152105,6.56312546 11.9265863,6.2718722 11.5705847,6.2718722 L3.67055536,6.2718722 L3.67055536,4.72018073 L7.30680542,4.72018073 C7.66280703,4.72018073 7.95143122,4.42892747 7.95143122,4.06968307 C7.95143122,3.71043866 7.66280703,3.41918541 7.30680542,3.41918541 L3.67055536,3.41918541 L3.67055536,1.32978692 C3.67055536,1.31394871 3.68333577,1.30105189 3.69903101,1.30105189 L17.2222153,1.30105189 L17.2222153,8.65325929 C17.2222153,9.0125037 17.5107834,9.30375695 17.8668411,9.30375695 L25.4877194,9.30381352 C25.7626103,10.5686638 26.1396323,12.5960105 26.4605999,14.0967934 C26.4671022,14.1269991 26.44838,14.136898 26.4150837,14.136898 Z" id="Shape"></path>
                            </g>
                            <ellipse id="Oval-2" stroke="#686C77" cx="29.5" cy="28.5" rx="29.5" ry="28.5"></ellipse>
                        </g>
                    </g>
                </g>
            </g>
        </g>
    </g>
</svg>