<?xml version="1.0" encoding="UTF-8"?>
<svg width="46px" height="46px" viewBox="0 0 46 46" version="1.1" xmlns="http://www.w3.org/2000/svg" xmlns:xlink="http://www.w3.org/1999/xlink">
    <!-- Generator: Sketch 55.2 (78181) - https://sketchapp.com -->
    <title>analytics</title>
    <desc>Created with Sketch.</desc>
    <g id="Web-transporteurs" stroke="none" stroke-width="1" fill="none" fill-rule="evenodd">
        <g id="TABLEAU-DE-BORD.-TRANSPORTEUR---statistiques" transform="translate(-202.000000, -253.000000)" fill="#F9AE02" fill-rule="nonzero">
            <g id="ligne-de-stats" transform="translate(177.000000, 230.000000)">
                <g id="analytics" transform="translate(25.000000, 23.000000)">
                    <path d="M41,4 L41,20 L46,20 L46,4 L41,4 Z M44.75,18.5454545 L42.25,18.5454545 L42.25,5.45454545 L44.75,5.45454545 L44.75,18.5454545 Z" id="Shape"></path>
                    <path d="M32.92,12.64816 C32.4336,12.21344 31.92668,11.80608 31.4,11.42836 L31.4,11.04 L30.82772,11.04 C27.866,9.08072 24.36468,8 20.76,8 L20,8 L20,27 L39,27 L39,26.24 C39,24.69568 38.79556,23.16808 38.41176,21.68 L39,21.68 L39,8 L32.92,8 L32.92,12.64816 Z M21.52,25.48 L21.52,9.53672 C23.6708,9.63552 25.76612,10.15764 27.69804,11.04 L25.32,11.04 L25.32,21.68 L31.4,21.68 L31.4,13.37092 C31.932,13.8102 32.44272,14.27608 32.92,14.78224 L32.92,21.68 L36.83856,21.68 C37.18968,22.91956 37.40476,24.1918 37.46328,25.48 L21.52,25.48 Z M29.88,12.56 L29.88,20.16 L26.84,20.16 L26.84,12.56 L29.88,12.56 Z M34.44,9.52 L37.48,9.52 L37.48,20.16 L34.44,20.16 L34.44,9.52 Z" id="Shape"></path>
                    <polygon id="Rectangle-path" transform="translate(9.500000, 25.500000) rotate(-45.000000) translate(-9.500000, -25.500000) " points="5 25 14 25 14 26 5 26"></polygon>
                    <path d="M8,23 C8,21.8973333 7.10266667,21 6,21 C4.89733333,21 4,21.8973333 4,23 C4,24.1026667 4.89733333,25 6,25 C7.10266667,25 8,24.1026667 8,23 Z M5.33333333,23 C5.33333333,22.632 5.632,22.3333333 6,22.3333333 C6.368,22.3333333 6.66666667,22.632 6.66666667,23 C6.66666667,23.368 6.368,23.6666667 6,23.6666667 C5.632,23.6666667 5.33333333,23.368 5.33333333,23 Z" id="Shape"></path>
                    <path d="M13,26 C11.8973333,26 11,26.8973333 11,28 C11,29.1026667 11.8973333,30 13,30 C14.1026667,30 15,29.1026667 15,28 C15,26.8973333 14.1026667,26 13,26 Z M13,28.6666667 C12.632,28.6666667 12.3333333,28.368 12.3333333,28 C12.3333333,27.632 12.632,27.3333333 13,27.3333333 C13.368,27.3333333 13.6666667,27.632 13.6666667,28 C13.6666667,28.368 13.368,28.6666667 13,28.6666667 Z" id="Shape"></path>
                    <path d="M32.8108937,38.1673871 C34.8323505,35.2137419 35.910411,31.7837742 35.910411,28.1935484 L35.910411,27.4516129 L18.7033391,27.4516129 L18.7033391,10.3870968 L17.9552055,10.3870968 C17.2160495,10.3870968 16.4641753,10.4516452 15.7108048,10.545871 L15.7108048,0 L0,0 L0,10.3870968 L9.41600902,10.3870968 L10.8771139,11.8360968 C4.32795266,14.6250323 0,21.0546452 0,28.1935484 C0,38.0115806 8.05515407,46 17.9552055,46 C22.2966246,46 26.4323069,44.4434194 29.7001543,41.6322258 L32.0148795,43.9277742 C32.4697448,44.378871 33.0682516,44.6051613 33.6660103,44.6051613 C34.263769,44.6051613 34.8622759,44.378871 35.3171411,43.9277742 C36.2276196,43.0248387 36.2276196,41.5558065 35.3171411,40.652871 L32.8108937,38.1673871 Z M10.0354636,8.90322581 L1.49626713,8.90322581 L1.49626713,1.48387097 L14.2145377,1.48387097 L14.2145377,13.0476774 L10.0354636,8.90322581 Z M17.9552055,44.516129 C8.87959725,44.516129 1.49626713,37.1939677 1.49626713,28.1935484 C1.49626713,21.4486129 5.71274788,15.3973871 12.0277433,12.9771935 L15.7108048,16.6297419 L15.7108048,12.0341935 C16.2113062,11.9659355 16.7118075,11.9110323 17.2070719,11.8880323 L17.2070719,28.9354839 L34.3976849,28.9354839 C34.2667616,31.8624194 33.350298,34.6543226 31.7358257,37.1012258 L30.5425527,35.9178387 C30.6248474,35.5817419 30.6734761,35.2322903 30.6734761,34.8709677 C30.6734761,32.4159032 28.6602487,30.4193548 26.1846747,30.4193548 C23.7091007,30.4193548 21.6958733,32.4159032 21.6958733,34.8709677 C21.6958733,37.3260323 23.7091007,39.3225806 26.1846747,39.3225806 C26.5490157,39.3225806 26.9013866,39.2743548 27.2402911,39.1927419 L28.6393009,40.5801613 C25.6572405,43.1146129 21.8993656,44.516129 17.9552055,44.516129 Z M29.1772089,34.8709677 C29.1772089,36.5076774 27.8350573,37.8387097 26.1846747,37.8387097 C24.5342921,37.8387097 23.1921404,36.5076774 23.1921404,34.8709677 C23.1921404,33.2342581 24.5342921,31.9032258 26.1846747,31.9032258 C27.8350573,31.9032258 29.1772089,33.2342581 29.1772089,34.8709677 Z M34.2592802,42.8786774 C33.9315977,43.2036452 33.4004229,43.2036452 33.0727404,42.8786774 L28.7081292,38.5502258 C29.1742164,38.2349032 29.5767123,37.8357419 29.894669,37.3735161 L34.2592802,41.7019677 C34.5862146,42.0269355 34.5862146,42.5537097 34.2592802,42.8786774 Z" id="Shape"></path>
                    <polygon id="Rectangle-path" points="3 3 13 3 13 4 3 4"></polygon>
                    <polygon id="Rectangle-path" points="3 5 13 5 13 6 3 6"></polygon>
                    <polygon id="Rectangle-path" points="25 34 26 34 26 35 25 35"></polygon>
                    <polygon id="Rectangle-path" points="19 34 20 34 20 35 19 35"></polygon>
                    <polygon id="Rectangle-path" points="15 34 16 34 16 35 15 35"></polygon>
                    <polygon id="Rectangle-path" points="13 34 14 34 14 35 13 35"></polygon>
                </g>
            </g>
        </g>
    </g>
</svg>