<?xml version="1.0" encoding="UTF-8"?>
<svg width="41px" height="39px" viewBox="0 0 41 39" version="1.1" xmlns="http://www.w3.org/2000/svg" xmlns:xlink="http://www.w3.org/1999/xlink">
    <!-- Generator: Sketch 55.2 (78181) - https://sketchapp.com -->
    <title>trolley (1)</title>
    <desc>Created with Sketch.</desc>
    <g id="Website-affreteurs" stroke="none" stroke-width="1" fill="none" fill-rule="evenodd">
        <g id="inscription" transform="translate(-512.000000, -564.000000)" fill="#FFFFFF" fill-rule="nonzero">
            <g id="Group" transform="translate(420.000000, 112.000000)">
                <g id="Group-2" transform="translate(68.000000, 452.000000)">
                    <g id="trolley-(1)" transform="translate(24.000000, 0.000000)">
                        <path d="M17.9998363,30 C16.3431175,30 15,31.3430442 15,33 C15,34.6569558 16.3431175,36 17.9998363,36 C19.6568826,36 21,34.6569558 21,33 C20.9957445,31.3450082 19.6552459,30.0042553 17.9998363,30 Z M17.9998363,34.3240589 C17.2685362,34.3240589 16.6760325,33.7312602 16.6760325,33 C16.6760325,32.2687398 17.2685362,31.6759411 17.9998363,31.6759411 C18.7311365,31.6759411 19.3239675,32.2687398 19.3239675,33 C19.3223307,33.7306055 18.7304818,34.3224222 17.9998363,34.3240589 L17.9998363,34.3240589 Z" id="Shape"></path>
                        <path d="M39.8569016,25.0113698 L23.6905276,30.2279625 C22.4691745,27.8262754 19.7793302,26.5009645 17.0843656,26.973071 L9.32443789,3.88033831 C8.83323406,2.42219513 7.58252473,1.33377379 6.0474702,1.02795858 L1.0490704,0.0174967746 C0.575958237,-0.0771922169 0.114110625,0.221931286 0.0178496556,0.685338415 C-0.0787526428,1.14908011 0.226415017,1.60144579 0.699527183,1.69613478 L5.69792698,2.69823186 C6.61855007,2.88359467 7.36849775,3.53671435 7.66410759,4.41133266 L15.4240353,27.495366 C12.6846952,28.8186693 11.3404558,31.9032546 12.258348,34.7579765 C13.1762403,37.6126983 16.0818183,39.3840178 19.1000421,38.9289754 C22.1182659,38.4735984 24.3462626,35.9280377 24.3459212,32.934461 C24.3466039,32.5667466 24.3114448,32.1997014 24.2411265,31.8383442 L40.3986253,26.6304508 C40.8550114,26.4812236 41.1045388,26.0004178 40.9580993,25.5510634 C40.8857329,25.335922 40.7290529,25.1579202 40.5221943,25.0565395 C40.3153357,24.9551587 40.0760488,24.9390984 39.8569016,25.0113698 Z M18.1589379,37.2945033 C15.7073565,37.2945033 13.7200121,35.3461857 13.7200121,32.9431603 C13.7200121,30.540135 15.7073565,28.5918174 18.1589379,28.5918174 C20.6108608,28.5918174 22.5982051,30.540135 22.5982051,32.9431603 C22.5947916,35.3448474 20.609154,37.2911574 18.1589379,37.2945033 Z" id="Shape"></path>
                        <path d="M15.9918428,14.6479229 C15.9991963,14.6958801 16.0105608,14.743511 16.0262705,14.789837 C16.0409775,14.8364892 16.0610325,14.8811841 16.0861013,14.923269 L19.5088201,25.0791023 C19.742795,25.7847582 20.2578741,26.3684005 20.9377384,26.6992073 C21.338504,26.8969083 21.7810507,26.9996738 22.2299484,27 C22.5351185,26.9983688 22.8379489,26.9504116 23.128412,26.8580859 L37.0332071,22.3899107 C38.5346576,21.9041402 39.3498931,20.3238364 38.8555375,18.8570639 L34.491571,5.92036574 C34.2575961,5.21470984 33.7425171,4.63074122 33.0626528,4.29993449 C32.3831228,3.96521279 31.5949616,3.90812096 30.8723133,4.14138217 L16.9675182,8.60955735 C16.2445358,8.83792487 15.6462285,9.34065989 15.307299,10.0042308 C14.9643587,10.6674756 14.9058649,11.4367482 15.1448536,12.1424041 L15.9918428,14.6479229 Z M36.4940621,20.8030822 L22.589267,25.2712573 C21.9842747,25.4634123 21.3341587,25.1423927 21.1346115,24.5528781 L17.9341689,15.0570271 L34.0296377,9.88743717 L37.2297461,19.3832882 C37.423611,19.9731291 37.0957119,20.6057072 36.4940621,20.8030822 Z M17.506329,10.1963859 L31.4111241,5.72821074 C31.5267746,5.68840949 31.6481073,5.66883512 31.770777,5.6697789 C31.9522747,5.66948756 32.1314326,5.71255125 32.292541,5.7950898 C32.5656233,5.92786918 32.7721896,6.16276157 32.8657796,6.44626369 L33.4904926,8.30060859 L17.3953581,13.4701985 L16.7706451,11.6161799 C16.6727099,11.3326778 16.6954389,11.0227504 16.8338183,10.7558865 C16.9721978,10.4886964 17.2145289,10.2874067 17.506329,10.1963859 Z" id="Shape"></path>
                    </g>
                </g>
            </g>
        </g>
    </g>
</svg>