<?xml version="1.0" encoding="UTF-8"?>
<svg width="52px" height="52px" viewBox="0 0 52 52" version="1.1" xmlns="http://www.w3.org/2000/svg" xmlns:xlink="http://www.w3.org/1999/xlink">
    <!-- Generator: Sketch 55.2 (78181) - https://sketchapp.com -->
    <title>Group 6</title>
    <desc>Created with Sketch.</desc>
    <g id="Web-transporteurs" stroke="none" stroke-width="1" fill="none" fill-rule="evenodd">
        <g id="Transporteur---TRANSPORTEUR---fiche" transform="translate(-363.000000, -402.000000)">
            <g id="Group-8" transform="translate(300.000000, 181.000000)">
                <g transform="translate(63.000000, 221.000000)" id="Group-6">
                    <g>
                        <circle id="Oval" fill="#F2F2F2" cx="26" cy="26" r="26"></circle>
                        <g id="delivery-truck" transform="translate(7.000000, 15.000000)" fill="#000000" fill-rule="nonzero">
                            <path d="M34.9848784,18.3496009 C34.8482891,17.6183692 33.6420212,11.1781717 33.3440403,10.2379107 C32.6276001,7.97726113 30.9063489,5.40373558 28.7397868,3.35374842 C26.4871587,1.22240608 24.1532695,0 22.3364128,0 L4.66304407,0 C3.74712558,0 3.00192604,0.782820894 3.00192604,1.74497948 L3.00192604,4.4868568 L1.77820466,4.4868568 C1.32943146,4.4868568 0.965593751,4.86906283 0.965593751,5.34049233 C0.965593751,5.81192182 1.32943146,6.19412785 1.77820466,6.19412785 L3.00185538,6.19412785 L3.00185538,8.23038262 L0.812610914,8.23038262 C0.363837704,8.23038262 0,8.61258865 0,9.08401815 C0,9.55544765 0.363837704,9.93765368 0.812610914,9.93765368 L3.00185538,9.93765368 L3.00185538,18.51387 C3.00185538,19.4760286 3.74705492,20.2587753 4.66297341,20.2587753 L6.68898907,20.2587753 C6.99191629,22.3734161 8.73295284,24 10.829065,24 C12.9251772,24 14.6662138,22.3734161 14.9690703,20.2587753 L22.4227616,20.2587753 C22.7256181,22.3734161 24.4667253,24 26.5628375,24 C28.6589497,24 30.3999863,22.3734161 30.7028428,20.2587753 L33.3388113,20.2587753 C34.2548005,20.2587753 35,19.4760286 35,18.51387 C35,18.458792 34.9949123,18.4037882 34.9848784,18.3496009 Z M31.7089965,10.5019439 L23.3354296,10.5019439 L23.3354296,1.85988624 C26.3018834,2.69682021 30.4135533,6.84281663 31.7089965,10.5019439 Z M10.8291357,22.2928032 C9.41660593,22.2928032 8.26736211,21.0856141 8.26736211,19.6016986 C8.26736211,18.1178574 9.41660593,16.9106683 10.8291357,16.9106683 C12.2416654,16.9106683 13.3908386,18.1178574 13.3908386,19.6016986 C13.3907679,21.0856141 12.2416654,22.2928032 10.8291357,22.2928032 Z M26.5629082,22.2928032 C25.1503784,22.2927289 24.0011346,21.0855398 24.0011346,19.6016986 C24.0011346,18.1178574 25.1503784,16.9106683 26.5629082,16.9106683 C27.975438,16.9106683 29.1246111,18.1178574 29.1246111,19.6016986 C29.1246111,21.0856141 27.975438,22.2928032 26.5629082,22.2928032 Z M33.2986754,18.5515785 C32.6210286,18.5515785 30.6282946,18.5515785 30.6282946,18.5515785 C30.1788148,16.6319377 28.5270948,15.2034715 26.5629082,15.2034715 C24.5987216,15.2034715 22.946931,16.6319377 22.4974511,18.5515785 L14.8945221,18.5515785 C14.4450423,16.6319377 12.7933223,15.2034715 10.8291357,15.2034715 C8.86494911,15.2034715 7.21315844,16.6319377 6.76367861,18.5515785 L4.66304407,18.5515785 C4.64325876,18.5515785 4.62707721,18.5346542 4.62707721,18.5139443 L4.62707721,9.93772791 L14.5858006,9.93772791 C15.0345738,9.93772791 15.3984115,9.55552188 15.3984115,9.08409238 C15.3984115,8.61266288 15.0345738,8.23045685 14.5858006,8.23045685 L4.62707721,8.23045685 L4.62707721,6.19420208 L9.21090938,6.19420208 C9.65968259,6.19420208 10.0235203,5.81199605 10.0235203,5.34056655 C10.0235203,4.86913705 9.65968259,4.48693103 9.21090938,4.48693103 L4.62707721,4.48693103 L4.62707721,1.74505371 C4.62707721,1.72426954 4.6431881,1.70734529 4.66297341,1.70734529 L21.7102078,1.70734529 L21.7102078,11.3555052 C21.7102078,11.8269347 22.0739748,12.2091407 22.5228187,12.2091407 L32.1296463,12.2092149 C32.4761718,13.8690535 32.9514432,16.5295015 33.3560528,18.49895 C33.3642496,18.5385883 33.3406485,18.5515785 33.2986754,18.5515785 Z" id="Shape"></path>
                        </g>
                    </g>
                </g>
            </g>
        </g>
    </g>
</svg>