<?xml version="1.0" encoding="UTF-8"?>
<svg width="15px" height="12px" viewBox="0 0 15 12" version="1.1" xmlns="http://www.w3.org/2000/svg" xmlns:xlink="http://www.w3.org/1999/xlink">
    <!-- Generator: Sketch 55.2 (78181) - https://sketchapp.com -->
    <title>twitter-logo-silhouette</title>
    <desc>Created with Sketch.</desc>
    <g id="Symbols" stroke="none" stroke-width="1" fill="none" fill-rule="evenodd" opacity="0.321316964">
        <g id="footer" transform="translate(-1154.000000, -29.000000)" fill="#010002" fill-rule="nonzero">
            <g id="reseaux" transform="translate(1111.000000, 26.000000)">
                <g id="twitter-logo-silhouette" transform="translate(43.000000, 3.000000)">
                    <path d="M14.5662651,1.4104048 C14.0301456,1.64796344 13.4548971,1.809073 12.8504923,1.88099988 C13.4676307,1.51144041 13.9400347,0.925267245 14.1639315,0.228942653 C13.5850415,0.571178479 12.9460537,0.819685625 12.2651998,0.954399776 C11.7199883,0.37277262 10.9444775,0.0104962792 10.0843062,0.0104962792 C8.43408168,0.0104962792 7.09605599,1.34852197 7.09605599,2.99784207 C7.09605599,3.23175915 7.12245139,3.46022579 7.17343332,3.67869596 C4.69036115,3.55397827 2.48854642,2.36432855 1.01490214,0.556612214 C0.757302977,0.997170328 0.610759686,1.51051217 0.610759686,2.05848459 C0.610759686,3.09523612 1.13869159,4.01000709 1.93969336,4.54519832 C1.449986,4.52882318 0.989411174,4.39410902 0.586196964,4.1701884 L0.586196964,4.2075085 C0.586196964,5.65475738 1.61656981,6.86261493 2.98279979,7.13751748 C2.73248376,7.20487456 2.46852971,7.24219466 2.19545984,7.24219466 C2.00250443,7.24219466 1.81590391,7.22308239 1.63294496,7.18666673 C2.01340533,8.37450756 3.1166095,9.2382966 4.42369378,9.26197868 C3.4015085,10.0629805 2.11263206,10.539026 0.712723541,10.539026 C0.471523329,10.539026 0.233940881,10.5244597 2.38010867e-05,10.4980643 C1.32257879,11.3473109 2.89271267,11.8424687 4.58025732,11.8424687 C10.0770707,11.8424687 13.0817199,7.28953502 13.0817199,3.34100614 L13.0716996,2.95416708 C13.6587772,2.53543456 14.1666686,2.00933534 14.5662651,1.4104048 Z" id="Shape"></path>
                </g>
            </g>
        </g>
    </g>
</svg>