<?xml version="1.0" encoding="UTF-8"?>
<svg width="32px" height="31px" viewBox="0 0 32 31" version="1.1" xmlns="http://www.w3.org/2000/svg" xmlns:xlink="http://www.w3.org/1999/xlink">
    <!-- Generator: Sketch 55.2 (78181) - https://sketchapp.com -->
    <title>trolley (1)</title>
    <desc>Created with Sketch.</desc>
    <g id="Symbols" stroke="none" stroke-width="1" fill="none" fill-rule="evenodd">
        <g id="header-transporteur" transform="translate(-552.000000, -27.000000)" fill="#34B59D" fill-rule="nonzero">
            <g id="header-affreteur-">
                <g id="trolley-(1)" transform="translate(552.000000, 27.000000)">
                    <path d="M14.4998636,24 C13.1192646,24 12,25.1192035 12,26.5 C12,27.8807965 13.1192646,29 14.4998636,29 C15.8807355,29 17,27.8807965 17,26.5 C16.9964537,25.1208401 15.8793716,24.0035461 14.4998636,24 Z M14.4998636,27.6033824 C13.8904469,27.6033824 13.3966938,27.1093835 13.3966938,26.5 C13.3966938,25.8906165 13.8904469,25.3966176 14.4998636,25.3966176 C15.1092804,25.3966176 15.6033062,25.8906165 15.6033062,26.5 C15.6019423,27.1088379 15.1087348,27.6020185 14.4998636,27.6033824 L14.4998636,27.6033824 Z" id="Shape"></path>
                    <path d="M31.1078256,19.8808324 L18.4901679,24.0273548 C17.5369167,22.1183215 15.437526,21.0648692 13.334139,21.4401333 L7.27761006,3.08437147 C6.89423146,1.92533459 5.91806808,1.06017917 4.71997674,0.817095278 L0.818786656,0.0139076926 C0.44952838,-0.061357916 0.0890619513,0.17640692 0.0139314385,0.544756176 C-0.0614654773,0.913371372 0.176714159,1.27294409 0.545972435,1.3482097 L4.44716252,2.1447484 C5.16569761,2.29208807 5.75102264,2.81123449 5.98174251,3.50644391 L12.0382715,21.8552909 C9.90024989,22.9071474 8.85108742,25.3589972 9.56749115,27.6281351 C10.2838949,29.897273 12.5516631,31.305245 14.9073499,30.9435446 C17.2630368,30.5815782 19.001961,28.5581838 19.0016946,26.1786741 C19.0022275,25.8863883 18.9747862,25.5946344 18.9199036,25.3074018 L31.5306344,21.1677942 C31.8868382,21.0491778 32.0815912,20.6669988 31.967297,20.3098197 C31.9108159,20.1388098 31.7885291,19.9973212 31.6270785,19.9167365 C31.4656279,19.8361518 31.2788674,19.8233859 31.1078256,19.8808324 Z M14.1728296,29.6443488 C12.2594002,29.6443488 10.7083021,28.0956861 10.7083021,26.185589 C10.7083021,24.2754919 12.2594002,22.7268292 14.1728296,22.7268292 C16.0865255,22.7268292 17.6376235,24.2754919 17.6376235,26.185589 C17.6349593,28.0946223 16.0851934,29.6416892 14.1728296,29.6443488 Z" id="Shape"></path>
                    <path d="M12.7852089,11.7961102 C12.7910304,11.835727 12.8000273,11.8750743 12.8124642,11.9133436 C12.8241072,11.9518824 12.8399841,11.9888042 12.8598302,12.02357 L15.5694826,20.4131714 C15.7547127,20.9961046 16.1624836,21.4782439 16.7007095,21.7515191 C17.0179823,21.9148373 17.3683318,21.9997305 17.7237091,22 C17.9653021,21.9986525 18.2050429,21.9590357 18.4349929,21.8827666 L29.4429556,18.1916654 C30.6316039,17.7903767 31.2769987,16.4849083 30.8856338,15.2732267 L27.4308271,4.58638909 C27.2455969,4.00345595 26.837826,3.5210471 26.2996001,3.24777197 C25.7616389,2.97126274 25.1376779,2.92409992 24.5655814,3.11679396 L13.5576186,6.8078952 C12.9852575,6.99654663 12.5115975,7.41184947 12.2432784,7.96001678 C11.971784,8.5079146 11.9254764,9.14340067 12.1146758,9.72633381 L12.7852089,11.7961102 Z M29.0161325,16.880807 L18.0081697,20.5719082 C17.5292174,20.730645 17.0145423,20.4654549 16.8565674,19.9784645 L14.3228837,12.1340658 L27.0651299,7.86353505 L29.598549,15.7079337 C29.7520254,16.1951936 29.4924386,16.7177582 29.0161325,16.880807 Z M13.9841771,8.11875359 L24.9921399,4.42765235 C25.0836966,4.39477305 25.1797516,4.37860293 25.2768651,4.37938257 C25.4205508,4.3791419 25.5623842,4.41471625 25.6899283,4.48290027 C25.9061184,4.59258759 26.0696501,4.78662912 26.1437422,5.02082653 L26.6383066,6.55267667 L13.8963251,10.8232075 L13.4017607,9.29162688 C13.3242286,9.05742947 13.3422224,8.80140248 13.4517728,8.5809497 C13.5613232,8.3602275 13.7531687,8.19394463 13.9841771,8.11875359 Z" id="Shape"></path>
                </g>
            </g>
        </g>
    </g>
</svg>