<?xml version="1.0" encoding="UTF-8"?>
<svg width="59px" height="47px" viewBox="0 0 59 47" version="1.1" xmlns="http://www.w3.org/2000/svg" xmlns:xlink="http://www.w3.org/1999/xlink">
    <!-- Generator: Sketch 55.2 (78181) - https://sketchapp.com -->
    <title>Group</title>
    <desc>Created with Sketch.</desc>
    <g id="Symbols" stroke="none" stroke-width="1" fill="none" fill-rule="evenodd">
        <g id="header-transporteur" transform="translate(-691.000000, -18.000000)" fill="#5A9FAC" fill-rule="nonzero">
            <g id="header-affreteur-">
                <g id="Group-7" transform="translate(628.000000, 17.870130)">
                    <g id="Group" transform="translate(63.469194, 0.129870)">
                        <g id="delivery-truck" transform="translate(37.407554, 32.135798)">
                            <path d="M20.7729959,10.9199827 C20.6918932,10.4848214 19.9756466,6.65221237 19.7987143,6.09265613 C19.3733131,4.74732691 18.3512845,3.21580288 17.0648435,1.99584041 C15.7272989,0.727462868 14.3415039,0 13.2627076,0 L2.76877896,0 C2.2249334,0 1.78245574,0.465862485 1.78245574,1.03845015 L1.78245574,2.67016156 L1.05584584,2.67016156 C0.789377452,2.67016156 0.573341282,2.89761518 0.573341282,3.17816635 C0.573341282,3.45871752 0.789377452,3.68617115 1.05584584,3.68617115 L1.78241378,3.68617115 L1.78241378,4.89796137 L0.482504555,4.89796137 C0.21603617,4.89796137 0,5.125415 0,5.40596617 C0,5.68651734 0.21603617,5.91397096 0.482504555,5.91397096 L1.78241378,5.91397096 L1.78241378,11.0177405 C1.78241378,11.5903282 2.22489144,12.0561465 2.76873701,12.0561465 L3.97172576,12.0561465 C4.15159506,13.3145848 5.18537156,14.2825769 6.42998157,14.2825769 C7.67459158,14.2825769 8.70836808,13.3145848 8.88819543,12.0561465 L13.313979,12.0561465 C13.4938063,13.3145848 14.5276248,14.2825769 15.7722348,14.2825769 C17.0168448,14.2825769 18.0506213,13.3145848 18.2304486,12.0561465 L19.7956095,12.0561465 C20.339497,12.0561465 20.7819747,11.5903282 20.7819747,11.0177405 C20.7819747,10.9849632 20.7789538,10.95223 20.7729959,10.9199827 Z M18.8278732,6.24978422 L13.8558945,6.24978422 L13.8558945,1.10683201 C15.6172879,1.60489759 18.058677,4.07221062 18.8278732,6.24978422 Z M6.43002353,13.2666115 C5.59130474,13.2666115 4.90891743,12.5482044 4.90891743,11.6651153 C4.90891743,10.7820705 5.59130474,10.0636634 6.43002353,10.0636634 C7.26874232,10.0636634 7.95108767,10.7820705 7.95108767,11.6651153 C7.95104571,12.5482044 7.26874232,13.2666115 6.43002353,13.2666115 Z M15.7722767,13.2666115 C14.9335579,13.2665673 14.2511706,12.5481602 14.2511706,11.6651153 C14.2511706,10.7820705 14.9335579,10.0636634 15.7722767,10.0636634 C16.6109955,10.0636634 17.2933409,10.7820705 17.2933409,11.6651153 C17.2933409,12.5482044 16.6109955,13.2666115 15.7722767,13.2666115 Z M19.771778,11.0401811 C19.3694111,11.0401811 18.1861841,11.0401811 18.1861841,11.0401811 C17.9192961,9.89778875 16.9385532,9.04769794 15.7722767,9.04769794 C14.6060003,9.04769794 13.6252154,9.89778875 13.3583274,11.0401811 L8.84393088,11.0401811 C8.57704293,9.89778875 7.59629997,9.04769794 6.43002353,9.04769794 C5.26374708,9.04769794 4.28296217,9.89778875 4.01607422,11.0401811 L2.76877896,11.0401811 C2.75703103,11.0401811 2.74742289,11.0301094 2.74742289,11.0177847 L2.74742289,5.91401514 L8.66062111,5.91401514 C8.92708949,5.91401514 9.14312566,5.68656151 9.14312566,5.40601034 C9.14312566,5.12545917 8.92708949,4.89800555 8.66062111,4.89800555 L2.74742289,4.89800555 L2.74742289,3.68621532 L5.46916815,3.68621532 C5.73563654,3.68621532 5.95167271,3.4587617 5.95167271,3.17821053 C5.95167271,2.89765936 5.73563654,2.67020573 5.46916815,2.67020573 L2.74742289,2.67020573 L2.74742289,1.03849433 C2.74742289,1.02612551 2.75698907,1.01605377 2.76873701,1.01605377 L12.8908854,1.01605377 L12.8908854,6.75774484 C12.8908854,7.03829601 13.1068796,7.26574964 13.3733899,7.26574964 L19.0776427,7.26579381 C19.2833994,8.25357601 19.5656017,9.83682817 19.805847,11.0088615 C19.810714,11.0324506 19.7967004,11.0401811 19.771778,11.0401811 Z" id="Shape"></path>
                        </g>
                        <g id="bicycle" transform="translate(0.000000, 32.730905)">
                            <path d="M17.754753,3.15165537 C17.0989946,3.15165537 16.4736068,3.28822656 15.9034854,3.53499438 L14.5402144,0.800847529 L16.4456121,0.800847529 C16.6523185,0.800847529 16.8204935,0.974684833 16.8204935,1.18835095 C16.8204935,1.40201707 16.6523185,1.57585438 16.4456121,1.57585438 L16.0390687,1.57585438 C15.8250795,1.57585438 15.6516877,1.75513744 15.6516877,1.97627814 C15.6516877,2.19741884 15.8250795,2.37670191 16.0390687,2.37670191 L16.4456121,2.37670191 C17.0795222,2.37670191 17.5952554,1.8436044 17.5952554,1.18835095 C17.5952554,0.533097505 17.0795739,0 16.4456121,0 L13.9048063,0 C13.7697395,0 13.644383,0.0727703455 13.5740347,0.191989848 C13.5037379,0.31120935 13.4985728,0.459739871 13.5604505,0.583871238 L14.2383671,1.94355017 L8.64753049,1.94355017 L8.08350385,0.800847529 L8.97546137,0.800847529 C9.1894506,0.800847529 9.36284231,0.621564462 9.36284231,0.400423764 C9.36284231,0.179283067 9.1894506,0 8.97546137,0 L6.43460398,0 C6.22061475,0 6.04722304,0.179283067 6.04722304,0.400423764 C6.04722304,0.621564462 6.22061475,0.800847529 6.43460398,0.800847529 L7.21370452,0.800847529 L7.96656646,2.32608834 L7.08168509,3.74321474 C6.40438826,3.36601555 5.6302462,3.15165537 4.8084821,3.15165537 C2.15709201,3.15165537 0,5.38132167 0,8.12198208 C0,10.8626425 2.15709201,13.0923622 4.8084821,13.0923622 C7.32945394,13.0923622 9.40338818,11.0765222 9.60131401,8.52240584 L10.737993,8.52240584 L10.2964304,10.0076043 L10.0422052,10.0076043 C9.82821594,10.0076043 9.65482423,10.1868873 9.65482423,10.408028 C9.65482423,10.6291687 9.82821594,10.8084518 10.0422052,10.8084518 L11.4367765,10.8084518 C11.6507658,10.8084518 11.8241575,10.6291687 11.8241575,10.408028 C11.8241575,10.1868873 11.6507658,10.0076043 11.4367765,10.0076043 L11.1069346,10.0076043 L11.6166763,8.29304311 L14.8399956,3.15016045 L15.2154452,3.9031173 C13.8540852,4.78180721 12.9462709,6.34426073 12.9462709,8.12198208 C12.9462709,10.8626425 15.1033629,13.0923622 17.7548047,13.0923622 C20.4061948,13.0923622 22.5632868,10.8626425 22.5632868,8.12198208 C22.5632868,5.38132167 20.4061431,3.15165537 17.754753,3.15165537 Z M8.373678,3.15085452 L10.6296813,7.72155831 L9.60126236,7.72155831 C9.48959335,6.28083361 8.78094449,5.01159706 7.73186526,4.17866224 L8.373678,3.15085452 Z M8.82319484,7.72155831 L5.5196102,7.72155831 L7.30987829,4.85457755 C8.14708597,5.54090388 8.71581284,6.56235821 8.82319484,7.72155831 Z M4.8084821,12.2915147 C2.58424406,12.2915147 0.774761875,10.4211086 0.774761875,8.12198208 C0.774761875,5.82290899 2.58424406,3.9524495 4.8084821,3.9524495 C5.47550042,3.9524495 6.10465872,4.12169528 6.65949152,4.41923683 L4.48297881,7.90479223 C4.40607078,8.02796258 4.40044085,8.18476853 4.46830999,8.31349142 C4.53612748,8.44221431 4.66664903,8.52235245 4.8084821,8.52235245 L8.82319484,8.52235245 C8.62754164,10.6342942 6.90199199,12.2915147 4.8084821,12.2915147 Z M11.3021746,7.32182862 L9.042814,2.74434431 L14.1711695,2.74434431 L11.3021746,7.32182862 Z M17.754753,12.2915147 C15.530515,12.2915147 13.7209812,10.4210552 13.7209812,8.12198208 C13.7209812,6.65386839 14.4594842,5.36151404 15.5720422,4.61838092 L17.4103972,8.30542955 C17.4791961,8.4433355 17.6146244,8.52245923 17.7550629,8.52245923 C17.8148229,8.52245923 17.8754609,8.50809737 17.9322252,8.47787872 C18.122455,8.3765982 18.1971421,8.13511598 18.0991089,7.93848122 L16.2601857,4.25036479 C16.7227702,4.05890884 17.2267786,3.95239611 17.754753,3.95239611 C19.9789911,3.95239611 21.7884733,5.8228556 21.7884733,8.12192869 C21.7884733,10.4211086 19.9789911,12.2915147 17.754753,12.2915147 Z" id="Shape"></path>
                        </g>
                        <g id="world" transform="translate(13.656726, 0.000000)">
                            <path d="M15.4380383,4.1657516 C8.89003324,4.1657516 3.56262423,9.50516702 3.56262423,16.0679294 C3.56262423,22.6306917 8.89003324,27.9700465 15.4380383,27.9700465 C21.9860434,27.9700465 27.3134524,22.6306311 27.3134524,16.0678687 C27.3134524,9.50510638 21.9860434,4.1657516 15.4380383,4.1657516 Z M15.4380383,26.935056 C9.4595802,26.935056 4.59528735,22.0603463 4.59528735,16.0678687 C4.59528735,10.0753911 9.4595802,5.2006814 15.4380383,5.2006814 C21.417041,5.2006814 26.2807893,10.0753911 26.2807893,16.0678687 C26.2807893,22.0603463 21.417041,26.935056 15.4380383,26.935056 Z" id="Shape"></path>
                            <path d="M20.5112816,5.41994418 C20.464403,5.39846531 20.4149566,5.38358609 20.3640172,5.37692644 L20.2463132,5.36102728 C20.0648901,5.33492866 19.8850197,5.41118464 19.7744221,5.55709694 C19.6633467,5.70300925 19.6383846,5.89655905 19.7086726,6.06599011 C20.0587391,6.90666579 20.47563,8.6058962 19.9425878,8.99599563 L18.7613671,9.47057061 C17.8670314,9.82995166 17.240232,10.6552681 17.1255736,11.6275169 L17.1179297,11.6863738 C17.089922,11.890123 16.9242644,11.9454401 16.8544542,11.9597794 C16.728091,11.985398 16.5593879,11.9546796 16.4625851,11.7918482 L15.9565354,10.9445129 C15.770514,10.6327093 15.4270762,10.4473791 15.070381,10.4693979 C14.711118,10.487817 14.3936575,10.7023657 14.2407795,11.0300084 C13.7857289,12.0063369 13.2144672,13.4153026 13.0758619,14.5820611 C13.0330441,14.944022 13.0972409,15.3095828 13.2613458,15.6398053 L13.8489105,16.8204231 C14.0573261,17.2381811 14.3768767,17.5924624 14.7738218,17.8443891 C15.1397135,18.0763369 15.8179898,18.5442522 16.2501087,19.0685046 C16.7418859,19.6659531 17.4043369,20.0520327 18.1157566,20.1672266 C18.0872114,21.1261561 18.1499152,22.702513 18.7996463,23.3987763 C19.0269328,23.6419434 19.3117873,23.7756164 19.6272174,23.7863558 C19.6843077,23.7940354 19.7846936,23.8042949 19.9146398,23.8042949 C20.2927737,23.8042949 20.9241714,23.7182594 21.5015243,23.2390647 C22.305686,22.5714799 22.7179188,21.3969818 22.7271154,19.7479087 L23.4568685,16.4477227 L23.7340791,16.9115583 C23.9593352,17.2888784 24.3359164,17.5540644 24.766005,17.6390799 C25.1960935,17.7240955 25.6445154,17.6206609 25.9956569,17.3564948 L27.1096351,16.5168391 C27.2380287,16.4200642 27.3134524,16.2685122 27.3134524,16.1072407 C27.3134524,11.5369817 24.6430458,7.34188284 20.5112816,5.41994418 Z M25.3839661,16.537418 C25.2616638,16.6290332 25.1113538,16.6633514 24.9619992,16.6341929 C24.8121669,16.6050345 24.6862815,16.5159392 24.6078122,16.3843661 L24.0793682,15.4991728 C23.9051113,15.2068082 23.5769016,15.0532163 23.2405702,15.1080534 C22.9057915,15.1628305 22.6417785,15.4131973 22.5679074,15.7459997 L21.7199725,19.5801576 C21.7117912,19.6165157 21.7077303,19.6538937 21.7077303,19.6912717 C21.7077303,21.0208616 21.4162471,21.9710915 20.8648715,22.4395468 C20.3609119,22.8675643 19.7845144,22.7748692 19.766181,22.7723493 C19.7004316,22.7600499 19.6505074,22.8133271 19.5434929,22.6986132 C19.2260323,22.3581311 19.0655105,21.1698338 19.1531765,19.8080256 C19.1633882,19.6462141 19.1057604,19.4849426 18.9952225,19.3666888 C18.8841472,19.2474151 18.7261335,19.1793187 18.5631036,19.1793187 C17.9918419,19.1793187 17.4348527,18.9012934 17.0348621,18.4164589 C16.5390241,17.8138507 15.8271266,17.3018977 15.3175535,16.9788147 C15.0780249,16.8267828 14.8854346,16.613794 14.7605644,16.3628872 L14.1729997,15.1822695 C14.0981134,15.0317374 14.068553,14.8658461 14.0879016,14.7030747 C14.2127718,13.65559 14.7763897,12.3060211 15.1269339,11.5447213 L15.5891507,12.3183205 C15.8949065,12.8302735 16.4712442,13.0816602 17.0593464,12.9623865 C17.6295929,12.8451527 18.0494697,12.3991962 18.127939,11.8252665 L18.1386286,11.7443907 C18.2084388,11.1479622 18.5921862,10.6411089 19.1399788,10.4209205 L20.3686155,9.92738653 C20.394115,9.91712707 20.4195549,9.90434774 20.4435018,9.8900085 C21.4117086,9.29921964 21.2863606,7.8850942 21.0320817,6.84990878 C24.1879951,8.7273298 26.2029378,12.1401299 26.2910815,15.8539941 L25.3839661,16.537418 Z" id="Shape"></path>
                            <path d="M13.2176724,22.9213288 L12.9044674,22.6117789 C12.5245754,22.2351987 12.0810853,21.9384793 11.5870198,21.7286952 L9.99301176,21.0523378 C9.35055088,20.7796604 8.93552854,20.1564836 8.93552854,19.464298 L8.93552854,18.6942902 C8.93552854,18.2231004 8.7019119,17.7820681 8.31063281,17.5134677 C7.91935372,17.2454069 7.41959462,17.1844922 6.97404524,17.3492498 L4.49208808,18.2701654 C4.24296565,18.3627966 4.10498829,18.62726 4.17421924,18.8820707 C5.33763856,23.1709833 8.93038013,26.5010885 13.3273032,27.3652263 C13.3614038,27.3718814 13.3955045,27.3749391 13.428636,27.3749391 C13.6555294,27.3749391 13.8612235,27.227089 13.9258512,27.0039948 L14.1150098,26.3480822 C14.4664341,25.1300274 14.1227021,23.8167034 13.2176724,22.9213288 Z M13.121064,26.0667713 L13.0652189,26.2591683 C9.41463343,25.371528 6.43909526,22.6123185 5.3045676,19.0616972 L7.33685666,18.3075776 C7.46762625,18.2584741 7.60766298,18.2758612 7.72189709,18.3546426 C7.8361312,18.4329444 7.90178856,18.5567524 7.90178856,18.6943502 L7.90178856,19.4643579 C7.90178856,20.5663989 8.56284429,21.5589013 9.58574232,21.9927989 L11.1797503,22.6691562 C11.5529191,22.8277384 11.8873235,23.0518518 12.1736961,23.3352612 L12.4869011,23.6448112 C13.1262124,24.2776409 13.3696413,25.2056912 13.121064,26.0667713 Z" id="Shape"></path>
                            <path d="M9.93134366,6.14074927 C9.77166851,5.94272088 9.49159436,5.89294326 9.27375226,6.02375982 C5.90485169,8.04654704 3.7699513,11.5996356 3.56334804,15.5277396 C3.55414176,15.7016608 3.63323207,15.8683677 3.77353816,15.9704479 C3.86177497,16.0350747 3.96639179,16.067899 4.07250313,16.067899 C4.13527322,16.067899 4.19798352,16.0561159 4.25716675,16.0335116 L7.4214966,14.7776485 C8.17957994,14.4724299 8.57084682,13.6239258 8.3127123,12.8451584 C8.24994222,12.6548251 8.29842464,12.4486207 8.43920898,12.3065019 L9.90940402,10.8280223 C10.4113854,10.3237532 10.6878727,9.65271717 10.6878727,8.93863667 L10.6878727,8.27120766 C10.6878727,7.50175857 10.4190374,6.74505447 9.93134366,6.14074927 Z M9.66758973,8.93815572 C9.66758973,9.37833904 9.49721377,9.79128895 9.187548,10.1021586 L7.71735296,11.5806383 C7.30157584,11.9992393 7.15875895,12.6076927 7.34497688,13.1688933 C7.43273544,13.4331115 7.29960307,13.7208959 7.04296308,13.8239982 L4.6545313,14.7761456 C5.05087958,11.6729794 6.7720952,8.89607319 9.38751557,7.16263345 C9.57014664,7.50380258 9.66758973,7.88543105 9.66758973,8.27072672 L9.66758973,8.93815572 Z" id="Shape"></path>
                            <path d="M15.5565883,0 C15.0652744,0 14.5696171,0.0292824442 14.0835377,0.0873290592 C13.8226507,0.118295892 13.6325958,0.390259831 13.6592135,0.693773661 C13.6843834,0.978500081 13.8910883,1.19021474 14.1315386,1.19021474 C14.1476874,1.19021474 14.1643374,1.18911341 14.1804863,1.18691075 C14.634268,1.13326946 15.0971266,1.1056714 15.556644,1.1056714 C15.8189231,1.1056714 16.031809,0.858001528 16.031809,0.552868094 C16.031809,0.24773466 15.8188674,0 15.5565883,0 Z" id="Shape"></path>
                            <path d="M1.18057599,17.8336217 C1.05187939,17.0202679 0.986288627,16.1864198 0.986288627,15.3546705 C0.986288627,15.1787401 0.989235877,15.0033036 0.995188167,14.8279288 C1.00455002,14.5371808 0.791538954,14.2937796 0.519293936,14.2832855 C0.249533854,14.2680382 0.0192438104,14.5008219 0.00941964295,14.7916316 C0.00294725025,14.9785499 0,15.1660855 0,15.3546705 C0,16.2448781 0.0700405353,17.1382956 0.207636669,18.0095521 C0.248551438,18.2665956 0.457170524,18.4483285 0.693355068,18.4483285 C0.720978315,18.4483285 0.748601563,18.4462297 0.776687124,18.4409827 C1.04494469,18.3925247 1.22594052,18.120666 1.18057599,17.8336217 Z" id="Shape"></path>
                            <path d="M3.48059103,23.0441171 C2.95467268,22.2582966 2.5104458,21.4179636 2.1603648,20.5461103 C2.05860462,20.2933708 1.76648678,20.1684416 1.50760038,20.2677856 C1.24871397,20.366611 1.12074641,20.6518506 1.22250659,20.9050511 C1.59773251,21.8393114 2.07371518,22.7396887 2.6368787,23.5815199 C2.73356268,23.7260989 2.89476167,23.8042949 3.05897097,23.8042949 C3.15364807,23.8042949 3.24938764,23.7782488 3.3345026,23.7246583 C3.56718162,23.5761609 3.63270007,23.2712715 3.48059103,23.0441171 Z" id="Shape"></path>
                            <path d="M2.12057861,8.37732109 C1.8981533,8.26566026 1.63155693,8.36506159 1.5252638,8.59975917 C1.1318065,9.46918947 0.822766147,10.3843444 0.606621075,11.3192691 C0.548162469,11.5723007 0.694649165,11.8272651 0.934449823,11.8889492 C0.970194879,11.8978953 1.0058876,11.9021474 1.04074296,11.9021474 C1.24171077,11.9021474 1.42436121,11.7574633 1.47439382,11.5425907 C1.67625133,10.6703441 1.9643052,9.81643144 2.33138548,9.00548227 C2.43767861,8.7703429 2.34342261,8.48947892 2.12057861,8.37732109 Z" id="Shape"></path>
                            <path d="M5.81660316,3.7641281 C5.63822733,3.52934588 5.32822878,3.50454494 5.1233096,3.70996285 C4.36714115,4.46847476 3.67586281,5.3183864 3.06905102,6.23549205 C2.90495446,6.48323689 2.94669832,6.83765884 3.16290273,7.02614597 C3.25180276,7.10405399 3.35601847,7.14128846 3.4596584,7.14128846 C3.60803624,7.14128846 3.75445643,7.06397567 3.85124461,6.91834456 C4.41775199,6.06168707 5.06337118,5.2681893 5.769447,4.56046971 C5.97384797,4.35558089 5.994979,3.99891032 5.81660316,3.7641281 Z" id="Shape"></path>
                            <path d="M13.2100135,29.3713703 C12.1951896,29.2080029 11.1959989,28.9489283 10.2411126,28.6005654 C9.96351391,28.4994221 9.64971221,28.6222513 9.53901451,28.8759478 C9.42831681,29.1286035 9.56331864,29.4157831 9.84041099,29.5169842 C10.8639058,29.8905606 11.9348696,30.1683719 13.0226059,30.3430738 C13.0539354,30.3479893 13.0852649,30.350476 13.1165945,30.350476 C13.3741929,30.350476 13.6021706,30.1817305 13.6485637,29.942896 C13.6998935,29.6743952 13.5038149,29.4187324 13.2100135,29.3713703 Z" id="Shape"></path>
                            <path d="M19.5801335,30.0856305 C19.5125616,29.854521 19.2268662,29.7127645 18.9443886,29.7668797 C17.9685567,29.9554521 16.9615997,30.0632797 15.9509918,30.086889 C15.6595417,30.0933325 15.4298468,30.2913688 15.4382624,30.5284687 C15.4467398,30.7612898 15.6811375,30.9455833 15.9657809,30.9455833 C15.9705456,30.9455833 15.9758053,30.9455833 15.9816219,30.9451806 C17.0640713,30.9198598 18.1428698,30.8047329 19.1883775,30.6028204 C19.4719071,30.5478495 19.6472103,30.316287 19.5801335,30.0856305 Z" id="Shape"></path>
                            <path d="M11.2590457,0.975014327 C11.1789569,0.6881848 10.9089594,0.530105886 10.6566657,0.620582742 C9.72336458,0.958081864 8.81692829,1.40739914 7.96276047,1.95537196 C7.7320486,2.10367478 7.65100439,2.4362539 7.78100111,2.69854733 C7.86923926,2.87573117 8.03183352,2.97553686 8.199205,2.97553686 C8.27884415,2.97553686 8.35988837,2.95266206 8.43418827,2.90518727 C9.23080459,2.393763 10.076823,1.97447689 10.9472896,1.65985257 C11.1995833,1.56880065 11.3391345,1.26184385 11.2590457,0.975014327 Z" id="Shape"></path>
                            <path d="M7.47661888,27.6163155 C6.61643342,27.0728843 5.81096568,26.4421431 5.08186154,25.742087 C4.87117926,25.5398983 4.52770176,25.5383836 4.31594037,25.7400269 C4.10411549,25.9416702 4.10303637,26.268977 4.31378213,26.4716504 C5.09487445,27.2213297 5.95778945,27.8970892 6.87859606,28.4792979 C6.97070211,28.5372219 7.07467848,28.5651539 7.17706791,28.5651539 C7.35258357,28.5651539 7.5247984,28.4839633 7.62883825,28.3330338 C7.79407054,28.0950971 7.72583208,27.7740311 7.47661888,27.6163155 Z" id="Shape"></path>
                            <path d="M23.6767953,28.2218324 C23.5299745,27.9753602 23.2153499,27.8959972 22.973866,28.0458508 C22.5533674,28.305907 22.1144038,28.5460766 21.6693252,28.7606688 C21.4140525,28.8839049 21.3040418,29.194565 21.4247837,29.4556615 C21.5122527,29.6446764 21.6959436,29.7553686 21.8877878,29.7553686 C21.9609284,29.7553686 22.0351482,29.7391533 22.1062504,29.7052542 C22.5835829,29.4754869 23.0537212,29.2180618 23.5044352,28.9392816 C23.7458592,28.7893668 23.8230765,28.4682433 23.6767953,28.2218324 Z" id="Shape"></path>
                            <path d="M30.7625021,22.8058828 C30.5789837,22.5891801 30.2394018,22.550477 30.0051486,22.7185974 L25.1467494,26.1898505 C25.0155473,26.2840513 24.9383696,26.4284036 24.9383696,26.581589 L24.9383696,28.0692772 C24.9383696,28.3429885 25.1802141,28.5651539 25.4781706,28.5651539 C25.7761272,28.5651539 26.0179717,28.3429885 26.0179717,28.0692772 L26.0179717,26.8240938 L30.667485,23.5016095 C30.9028137,23.3335473 30.9454512,23.0221206 30.7625021,22.8058828 Z" id="Shape"></path>
                            <path d="M25.8011543,26.2156004 L24.3762599,25.620805 C24.1264025,25.51555 23.8580659,25.6856309 23.7754109,25.9967257 C23.6923106,26.3083782 23.8267294,26.6450548 24.0755849,26.7491945 L25.5004793,27.34399 C25.5503506,27.3648318 25.6011681,27.3749391 25.6505941,27.3749391 C25.8495784,27.3749391 26.0348147,27.2173354 26.1013283,26.9680692 C26.1844286,26.6563471 26.0500098,26.3196704 25.8011543,26.2156004 Z" id="Shape"></path>
                            <path d="M29.6506569,27.2348104 L28.5951171,24.5572484 C28.5523809,24.448557 28.4753198,24.3569977 28.3766122,24.297004 L25.7377935,22.6904794 C25.4876231,22.5384243 25.1636076,22.6203194 25.0136908,22.8741629 C24.8637741,23.1280063 24.9445461,23.4567791 25.1947165,23.6088969 L27.6810209,25.1227953 L28.6705702,27.6332411 C28.753445,27.8426541 28.9513548,27.9700465 29.16083,27.9700465 C29.226264,27.9700465 29.2927493,27.9577465 29.3566371,27.9309502 C29.6274644,27.8211919 29.758827,27.5094885 29.6506569,27.2348104 Z" id="Shape"></path>
                        </g>
                    </g>
                </g>
            </g>
        </g>
    </g>
</svg>